<?xml version="1.0" encoding="UTF-8"?>
<svg version="1.1" xmlns="http://www.w3.org/2000/svg" width="500" height="500">
<path d="M0 0 C165 0 330 0 500 0 C500 165 500 330 500 500 C335 500 170 500 0 500 C0 335 0 170 0 0 Z " fill="#FDFDFD" transform="translate(0,0)"/>
<path d="M0 0 C3.87668901 0.2925803 5.55788175 2.4316669 8.00708008 5.25317383 C8.49974365 5.82962646 8.99240723 6.4060791 9.5 7 C19.08812389 17.74052143 30.25474778 24.60996234 43 31 C42.52949219 30.31035156 42.05898437 29.62070313 41.57421875 28.91015625 C32.15821678 14.69842657 32.15821678 14.69842657 33 6 C34.32 6 35.64 6 37 6 C38.74353346 7.94830077 40.19944045 9.80851593 41.6875 11.9375 C48.8678224 21.68534769 56.39954273 28.98148075 67 35 C67.79019531 35.45117188 68.58039063 35.90234375 69.39453125 36.3671875 C73.71584076 38.67475245 78.00752768 40.3689171 82.69116211 41.81884766 C95.14613498 45.67856409 95.14613498 45.67856409 99 51 C99.66649905 52.52418507 100.290333 54.06759009 100.875 55.625 C101.958399 58.41557317 102.56274636 59.70491578 105.06640625 61.39453125 C107.35007792 62.39904581 109.62971309 63.22559218 112 64 C112.845625 64.4125 113.69125 64.825 114.5625 65.25 C118.54316867 66.47482113 123.20065741 66.89967129 127 65 C129.8125 64.625 129.8125 64.625 133 65 C135.8125 67.4375 135.8125 67.4375 138 70 C138.33 70.33 138.66 70.66 139 71 C139.15327614 73.22545162 139.22203074 75.45695159 139.25 77.6875 C139.28867187 79.51861328 139.28867187 79.51861328 139.328125 81.38671875 C138.86344106 86.50377399 136.80649394 89.79025908 134 94 C132.00661779 94.37086181 130.00487668 94.69737711 128 95 C125.60208393 95.88900696 123.32635118 96.92987846 121 98 C121.144375 97.484375 121.28875 96.96875 121.4375 96.4375 C122.15793342 93.31562184 122.55952367 90.17216991 123 87 C120.79290017 86.34996375 118.58426108 85.70515255 116.375 85.0625 C115.14523437 84.70285156 113.91546875 84.34320313 112.6484375 83.97265625 C107.31569234 82.55097151 102.39203255 81.86088994 96.875 81.875 C95.86179687 81.87242188 94.84859375 81.86984375 93.8046875 81.8671875 C91.36355131 81.98278448 89.32891512 82.29798252 87 83 C93.7277703 89.93801312 100.82103199 95.83134661 109 101 C108.34 99.35 107.68 97.7 107 96 C111.59306496 97.4859916 114.43569245 99.85014682 118 103 C116.868299 107.80972923 114.14803866 109.93131475 110.265625 112.640625 C103.06021604 116.96387038 96.27066199 117.41739789 88 117 C88 116.34 88 115.68 88 115 C88.66 114.4225 89.32 113.845 90 113.25 C92.20234633 111.11536652 92.20234633 111.11536652 92.75 108.125 C91.74857855 103.95241065 90.01435594 102.70912371 86.5 100.390625 C75.30254068 94.16203825 61.06509679 92.43400973 48.6328125 95.953125 C43.95186535 98.14775304 40.95116104 100.69622348 38 105 C37.34 105 36.68 105 36 105 C35.54509082 98.63127145 36.44650984 94.35994669 40 89 C40.97178119 87.97255593 41.96504762 86.96378087 43 86 C30.86907622 85.17756449 20.16542774 89.04266906 11 97 C3.24822601 104.70781308 -2.03020213 113.06000179 -2.5 124.1875 C-2.28262213 132.68499838 0.01926232 141.52971314 6.25 147.625 C7.1575 148.40875 8.065 149.1925 9 150 C9.33 150.99 9.66 151.98 10 153 C13.0923637 152.39378773 15.07677231 151.38963347 17.625 149.5625 C23.58601475 145.70733906 30.00070539 144.86324646 37 145 C37.2475 144.27683594 37.495 143.55367187 37.75 142.80859375 C41.62746596 134.09641242 49.63561372 128.09160412 58 124 C65.85341508 121.38219497 77.366754 122.02432783 85 125 C90.99841237 128.27339522 95.9725546 131.38227826 100 137 C100 137.33 100 137.66 100 138 C95.53761627 138.44623837 93.62175689 138.47927094 90 135.6875 C89.38125 135.04361328 89.38125 135.04361328 88.75 134.38671875 C83.35982817 130.11548884 77.76669937 129.44398736 71.125 129.5 C70.32852051 129.50644531 69.53204102 129.51289063 68.71142578 129.51953125 C62.37186387 129.71695256 57.92715473 130.8340341 53 135 C52.33097656 135.51175781 51.66195312 136.02351562 50.97265625 136.55078125 C41.82341978 144.4707537 36.80864208 157.49090277 34 169 C33.6092192 170.37644448 33.21386966 171.75160587 32.8125 173.125 C32.544375 174.07375 32.27625 175.0225 32 176 C33.98 176 35.96 176 38 176 C38.103125 175.071875 38.20625 174.14375 38.3125 173.1875 C40.27511882 159.85244611 45.02054126 148.295153 55 139 C62.1073762 133.82700248 69.32063278 131.86134138 78 133 C82.90638913 134.67941467 86.84153902 136.65215583 90.24609375 140.61328125 C93.99602469 143.8632214 96.87691125 143.7855755 101.6875 144 C111.60468902 144.79337512 118.07373976 147.09842052 125.375 154.0625 C130.3151747 158.73065798 135.58851073 160.1512325 142 162 C147.53557467 164.25175919 147.53557467 164.25175919 149.125 166.8125 C148.92913051 170.24021603 147.01187201 172.31750399 145 175 C148.60296594 175.41176754 149.78402067 175.1535853 152.8125 173 C153.534375 172.34 154.25625 171.68 155 171 C164.51266962 175.1130168 170.00443271 185.98500129 174 195 C174 195.99 174 196.98 174 198 C171.07120629 197.37240135 168.63904371 196.41377341 166 195 C166.474375 195.886875 166.94875 196.77375 167.4375 197.6875 C172.10497598 207.58254908 171.85263137 222.92714947 169.01171875 233.35546875 C160.85569641 255.15846931 142.87332316 271.45623654 122 281 C97.28544099 290.6495091 68.32089701 290.99837957 43.77734375 280.7265625 C33.96728104 276.36149995 25.23858409 270.65411383 16.73828125 264.1015625 C12.94572854 261.19087298 9.07514329 258.49884009 5 256 C4.24589844 255.5359375 3.49179688 255.071875 2.71484375 254.59375 C-3.2617091 251.25076759 -8.71903759 250.31060185 -15.4765625 249.51171875 C-27.46441364 247.77068937 -39.71779766 242.04203741 -48 233 C-48.33 232.01 -48.66 231.02 -49 230 C-48.45472656 230.13277344 -47.90945312 230.26554688 -47.34765625 230.40234375 C-41.90097013 231.67789247 -36.56879648 232.46963843 -31 233 C-32.33998047 231.97712891 -32.33998047 231.97712891 -33.70703125 230.93359375 C-37.14752702 228.06297745 -39.36842382 224.86218567 -41.6875 221.0625 C-42.06455078 220.46759766 -42.44160156 219.87269531 -42.83007812 219.25976562 C-48.5931202 210.05700209 -50.17767423 202.45937988 -50.125 191.6875 C-50.12886719 190.87732422 -50.13273438 190.06714844 -50.13671875 189.23242188 C-50.12676222 183.25352444 -50.12676222 183.25352444 -49 181 C-48.34 181 -47.68 181 -47 181 C-46.8040625 181.84820312 -46.608125 182.69640625 -46.40625 183.5703125 C-41.78623368 201.69192823 -32.12108903 215.89039299 -16.03662109 225.83154297 C-12.91967646 227.59467824 -9.78050014 229.30689245 -6.625 231 C4.14304227 236.90874669 14.16427867 243.01675044 23.875 250.5625 C42.47095715 264.58805936 62.72503559 268.29798888 85.48144531 265.71875 C99.32268147 263.62861052 113.53210539 257.37600538 124 248 C124.66128906 247.41863281 125.32257813 246.83726562 126.00390625 246.23828125 C137.78858977 235.21389989 141.98635141 222.79893658 143 207 C142.34 207 141.68 207 141 207 C140.77054688 207.70640625 140.54109375 208.4128125 140.3046875 209.140625 C133.318715 224.45119946 114.9157614 234.85257274 100 241 C96.33184391 242.23236811 92.78328985 243.15926892 89 244 C93.29 244 97.58 244 102 244 C102 246.64 102 249.28 102 252 C100.00086953 252.62777573 98.00064618 253.25207153 96 253.875 C94.88625 254.22304688 93.7725 254.57109375 92.625 254.9296875 C84.84993729 257.22534179 78.23443071 258.38794565 70.125 258.375 C69.12355957 258.37411377 68.12211914 258.37322754 67.09033203 258.37231445 C56.91855483 258.21320376 43.32345836 257.54329675 35 251 C34.6875 247.3125 34.6875 247.3125 35 244 C38.63 244 42.26 244 46 244 C45.07960938 243.79246094 44.15921875 243.58492187 43.2109375 243.37109375 C19.92708428 237.70424964 -0.2299593 223.66076465 -13.04833984 203.29785156 C-15.98361545 198.37442683 -18.04132019 193.23654273 -19.95703125 187.8359375 C-21.50571097 183.62492074 -23.60030808 180.03288589 -26.1484375 176.33203125 C-34.44992556 163.93267489 -38.77086025 148.74967697 -40 134 C-43.71544277 140.05479563 -46.36125072 146.41394135 -49 153 C-49.66 153 -50.32 153 -51 153 C-51.87936679 128.5400745 -47.41333751 107.60383864 -32 88 C-33.72953968 88.62396703 -35.458615 89.24922128 -37.1875 89.875 C-38.15042969 90.22304687 -39.11335937 90.57109375 -40.10546875 90.9296875 C-42.75634859 91.90990488 -45.3813098 92.93720434 -48 94 C-43.14648483 81.13930311 -32.44314679 69.455741 -21 62 C-20.01580078 61.32710937 -20.01580078 61.32710937 -19.01171875 60.640625 C-13.3848274 56.92578411 -7.88298968 54 -1 54 C-1 53.34 -1 52.68 -1 52 C-2.11375 51.87625 -3.2275 51.7525 -4.375 51.625 C-9.30460991 51.01542458 -14.14244255 50.02526315 -19 49 C-14.08912383 43.59399288 -8.10613685 41.43687799 -0.89306641 40.66943359 C2.31026306 40.57275363 5.48408358 40.60018701 8.6875 40.6875 C9.76322266 40.69716797 10.83894531 40.70683594 11.94726562 40.71679688 C17.70679987 40.79791708 23.30298571 41.15268107 29 42 C28.3709375 41.5153125 27.741875 41.030625 27.09375 40.53125 C16.0395743 31.87436542 5.67230112 22.14313675 0 9 C-0.29296875 6.4453125 -0.29296875 6.4453125 -0.1875 4.125 C-0.14689453 2.95324219 -0.14689453 2.95324219 -0.10546875 1.7578125 C-0.07066406 1.17773438 -0.03585938 0.59765625 0 0 Z " fill="#181818" transform="translate(189,39)"/>
<path d="M0 0 C9.51266962 4.1130168 15.00443271 14.98500129 19 24 C19 24.99 19 25.98 19 27 C16.07120629 26.37240135 13.63904371 25.41377341 11 24 C11.474375 24.886875 11.94875 25.77375 12.4375 26.6875 C17.10497598 36.58254908 16.85263137 51.92714947 14.01171875 62.35546875 C5.85569641 84.15846931 -12.12667684 100.45623654 -33 110 C-57.71455901 119.6495091 -86.67910299 119.99837957 -111.22265625 109.7265625 C-121.03271896 105.36149995 -129.76141591 99.65411383 -138.26171875 93.1015625 C-142.05427146 90.19087298 -145.92485671 87.49884009 -150 85 C-151.13115234 84.30390625 -151.13115234 84.30390625 -152.28515625 83.59375 C-158.2617091 80.25076759 -163.71903759 79.31060185 -170.4765625 78.51171875 C-182.46441364 76.77068937 -194.71779766 71.04203741 -203 62 C-203.495 60.515 -203.495 60.515 -204 59 C-203.45472656 59.13277344 -202.90945312 59.26554687 -202.34765625 59.40234375 C-196.90097013 60.67789247 -191.56879648 61.46963843 -186 62 C-187.33998047 60.97712891 -187.33998047 60.97712891 -188.70703125 59.93359375 C-192.14752702 57.06297745 -194.36842382 53.86218567 -196.6875 50.0625 C-197.06455078 49.46759766 -197.44160156 48.87269531 -197.83007812 48.25976562 C-203.5931202 39.05700209 -205.17767423 31.45937988 -205.125 20.6875 C-205.12886719 19.87732422 -205.13273438 19.06714844 -205.13671875 18.23242188 C-205.12676222 12.25352444 -205.12676222 12.25352444 -204 10 C-203.34 10 -202.68 10 -202 10 C-201.8040625 10.84820312 -201.608125 11.69640625 -201.40625 12.5703125 C-196.78623368 30.69192823 -187.12108903 44.89039299 -171.03662109 54.83154297 C-167.91967646 56.59467824 -164.78050014 58.30689245 -161.625 60 C-150.85695773 65.90874669 -140.83572133 72.01675044 -131.125 79.5625 C-112.52904285 93.58805936 -92.27496441 97.29798888 -69.51855469 94.71875 C-55.67731853 92.62861052 -41.46789461 86.37600538 -31 77 C-30.33871094 76.41863281 -29.67742187 75.83726562 -28.99609375 75.23828125 C-17.21141023 64.21389989 -13.01364859 51.79893658 -12 36 C-12.66 36 -13.32 36 -14 36 C-14.22945312 36.70640625 -14.45890625 37.4128125 -14.6953125 38.140625 C-21.681285 53.45119946 -40.0842386 63.85257274 -55 70 C-58.66815609 71.23236811 -62.21671015 72.15926892 -66 73 C-61.71 73 -57.42 73 -53 73 C-53 75.64 -53 78.28 -53 81 C-54.99913047 81.62777573 -56.99935382 82.25207153 -59 82.875 C-60.11375 83.22304688 -61.2275 83.57109375 -62.375 83.9296875 C-70.15006271 86.22534179 -76.76556929 87.38794565 -84.875 87.375 C-85.87644043 87.37411377 -86.87788086 87.37322754 -87.90966797 87.37231445 C-98.08144517 87.21320376 -111.67654164 86.54329675 -120 80 C-120.3125 76.3125 -120.3125 76.3125 -120 73 C-116.37 73 -112.74 73 -109 73 C-109.92039062 72.79246094 -110.84078125 72.58492188 -111.7890625 72.37109375 C-136.30099142 66.40535952 -155.89658712 51.59038825 -169.16015625 30.32421875 C-174.03049055 21.52452768 -174.03049055 21.52452768 -173.9375 16.875 C-172.86101031 13.57376496 -171.32603482 11.55113497 -169 9 C-168.505 9.495 -168.505 9.495 -168 10 C-167.608125 9.484375 -167.21625 8.96875 -166.8125 8.4375 C-166.214375 7.963125 -165.61625 7.48875 -165 7 C-161.18407552 7.492807 -157.64209748 8.73105521 -154 9.9375 C-148.39572833 11.68962557 -142.93601876 12.77716933 -137.125 13.56640625 C-134.18311418 13.97459291 -131.28977029 14.49527908 -128.375 15.0625 C-119.03728559 16.78332548 -109.68846253 17.1699196 -100.2109375 17.23828125 C-99.10940338 17.246353 -98.00786926 17.25442474 -96.87295532 17.26274109 C-94.54845712 17.2764923 -92.22393948 17.28725397 -89.89941406 17.29516602 C-87.57480745 17.30659904 -85.25022523 17.32690998 -82.92578125 17.35668945 C-58.17954692 17.67236619 -19.91154663 17.18144425 0 0 Z " fill="#181919" transform="translate(344,210)"/>
<path d="M0 0 C5.99841237 3.27339522 10.9725546 6.38227826 15 12 C15 12.33 15 12.66 15 13 C10.53761627 13.44623837 8.62175689 13.47927094 5 10.6875 C4.5875 10.25824219 4.175 9.82898438 3.75 9.38671875 C-1.64017183 5.11548884 -7.23330063 4.44398736 -13.875 4.5 C-14.67147949 4.50644531 -15.46795898 4.51289063 -16.28857422 4.51953125 C-22.62813613 4.71695256 -27.07284527 5.8340341 -32 10 C-33.00353516 10.76763672 -33.00353516 10.76763672 -34.02734375 11.55078125 C-43.17658022 19.4707537 -48.19135792 32.49090277 -51 44 C-51.3907808 45.37644448 -51.78613034 46.75160587 -52.1875 48.125 C-52.455625 49.07375 -52.72375 50.0225 -53 51 C-51.02 51 -49.04 51 -47 51 C-46.896875 50.071875 -46.79375 49.14375 -46.6875 48.1875 C-44.72488118 34.85244611 -39.97945874 23.295153 -30 14 C-22.8926238 8.82700248 -15.67936722 6.86134138 -7 8 C-2.09361087 9.67941467 1.84153902 11.65215583 5.24609375 15.61328125 C8.99602469 18.8632214 11.87691125 18.7855755 16.6875 19 C26.60468902 19.79337512 33.07373976 22.09842052 40.375 29.0625 C45.3151747 33.73065798 50.58851073 35.1512325 57 37 C62.53557467 39.25175919 62.53557467 39.25175919 64.125 41.8125 C63.92913051 45.24021603 62.01187201 47.31750399 60 50 C60.99 50.66 61.98 51.32 63 52 C54.08948965 55.46263355 45.26743802 58.39637366 35.875 60.25 C34.73369629 60.47574707 34.73369629 60.47574707 33.56933594 60.70605469 C31.05156098 61.17622248 28.52845357 61.59118784 26 62 C24.4996521 62.26925293 24.4996521 62.26925293 22.96899414 62.54394531 C11.41446745 64.38978443 -0.1123585 64.30299696 -11.78686523 64.26074219 C-15.29493625 64.25005351 -18.80249169 64.26067112 -22.31054688 64.2734375 C-37.8280527 64.28385497 -52.92079135 63.92141079 -68 60 C-69.91289176 59.68452309 -71.82957825 59.39082109 -73.75 59.125 C-83.96507964 57.46327834 -97.01002238 54.30723784 -104 46 C-104.5 43.125 -104.5 43.125 -104 40 C-98.56646758 32.81371518 -88.75113711 28.46325832 -80 27 C-77.90625 27.25390625 -77.90625 27.25390625 -75.9375 27.6875 C-70.84995888 28.0912731 -69.31345583 26.44653887 -65.3671875 23.50390625 C-60.14994611 20.1893222 -54.04526413 19.89281447 -48 20 C-47.7525 19.27683594 -47.505 18.55367187 -47.25 17.80859375 C-43.37253404 9.09641242 -35.36438628 3.09160412 -27 -1 C-19.14658492 -3.61780503 -7.633246 -2.97567217 0 0 Z " fill="#212121" transform="translate(274,164)"/>
<path d="M0 0 C5.99841237 3.27339522 10.9725546 6.38227826 15 12 C15 12.33 15 12.66 15 13 C10.53761627 13.44623837 8.62175689 13.47927094 5 10.6875 C4.5875 10.25824219 4.175 9.82898438 3.75 9.38671875 C-1.64017183 5.11548884 -7.23330063 4.44398736 -13.875 4.5 C-14.67147949 4.50644531 -15.46795898 4.51289063 -16.28857422 4.51953125 C-22.62813613 4.71695256 -27.07284527 5.8340341 -32 10 C-33.00353516 10.76763672 -33.00353516 10.76763672 -34.02734375 11.55078125 C-43.17658022 19.4707537 -48.19135792 32.49090277 -51 44 C-51.3907808 45.37644448 -51.78613034 46.75160587 -52.1875 48.125 C-52.455625 49.07375 -52.72375 50.0225 -53 51 C-50.0957107 50.89207179 -50.0957107 50.89207179 -47 50 C-45.08255407 47.55690423 -45.08255407 47.55690423 -44 45 C-43.01 45.99 -42.02 46.98 -41 48 C-40.67128906 46.65808594 -40.67128906 46.65808594 -40.3359375 45.2890625 C-37.62863065 34.96607948 -34.1463349 26.26565004 -26 19 C-25.505 18.443125 -25.01 17.88625 -24.5 17.3125 C-20.41425874 13.7374764 -15.78376422 13.57454942 -10.57421875 13.67578125 C-6.5861101 14.17807718 -3.23835241 15.62679566 0 18 C0.99 19.485 0.99 19.485 2 21 C-2.50663521 22.25184311 -2.50663521 22.25184311 -4.8671875 21.046875 C-8.73385467 19.14895045 -12.79929807 19.47991309 -17 20 C-24.35022265 23.39241045 -28.82638562 30.78884289 -32 38 C-32.75104698 41.63999489 -33.31657107 45.27737143 -33.86328125 48.953125 C-35 52 -35 52 -38.10546875 53.421875 C-39.06066406 53.61265625 -40.01585937 53.8034375 -41 54 C-41 54.66 -41 55.32 -41 56 C-37.00856939 57.33047687 -33.15930138 57.18197941 -28.99609375 57.203125 C-28.0935788 57.21009399 -27.19106384 57.21706299 -26.26119995 57.22424316 C-23.31991996 57.24174348 -20.37883007 57.24797571 -17.4375 57.25 C-15.94046036 57.25151062 -15.94046036 57.25151062 -14.41317749 57.25305176 C10.11011231 57.23626496 35.02093408 56.07231868 57.99609375 46.63671875 C60 46 60 46 62 47 C61.34 47.99 60.68 48.98 60 50 C60.99 50.66 61.98 51.32 63 52 C54.08948965 55.46263355 45.26743802 58.39637366 35.875 60.25 C34.73369629 60.47574707 34.73369629 60.47574707 33.56933594 60.70605469 C31.05156098 61.17622248 28.52845357 61.59118784 26 62 C24.4996521 62.26925293 24.4996521 62.26925293 22.96899414 62.54394531 C11.41446745 64.38978443 -0.1123585 64.30299696 -11.78686523 64.26074219 C-15.29493625 64.25005351 -18.80249169 64.26067112 -22.31054688 64.2734375 C-37.8280527 64.28385497 -52.92079135 63.92141079 -68 60 C-69.91289176 59.68452309 -71.82957825 59.39082109 -73.75 59.125 C-83.96507964 57.46327834 -97.01002238 54.30723784 -104 46 C-104.5 43.125 -104.5 43.125 -104 40 C-98.56646758 32.81371518 -88.75113711 28.46325832 -80 27 C-77.90625 27.25390625 -77.90625 27.25390625 -75.9375 27.6875 C-70.84995888 28.0912731 -69.31345583 26.44653887 -65.3671875 23.50390625 C-60.14994611 20.1893222 -54.04526413 19.89281447 -48 20 C-47.7525 19.27683594 -47.505 18.55367187 -47.25 17.80859375 C-43.37253404 9.09641242 -35.36438628 3.09160412 -27 -1 C-19.14658492 -3.61780503 -7.633246 -2.97567217 0 0 Z " fill="#EFEFEF" transform="translate(274,164)"/>
<path d="M0 0 C4.62 0 9.24 0 14 0 C16.96226205 3.77015169 18.86624186 6.59037866 20.87207031 10.77685547 C23.15150818 15.26961763 25.87598843 19.51532755 28.5 23.8125 C29.55393123 25.56790227 30.60616222 27.32432711 31.65625 29.08203125 C32.10806641 29.83718018 32.55988281 30.5923291 33.02539062 31.37036133 C33.34701172 31.90814209 33.66863281 32.44592285 34 33 C34.03758423 31.55379272 34.03758423 31.55379272 34.07592773 30.07836914 C34.16985306 26.51312158 34.27010939 22.94807567 34.37231445 19.38305664 C34.41571985 17.83785711 34.45739071 16.29260786 34.49731445 14.74731445 C34.55488199 12.53060904 34.61861424 10.3141552 34.68359375 8.09765625 C34.70866249 7.05545677 34.70866249 7.05545677 34.73423767 5.99220276 C34.88612829 1.11387171 34.88612829 1.11387171 36 0 C39.96 0 43.92 0 48 0 C48 18.81 48 37.62 48 57 C34 57 34 57 30.578125 53.625 C29.74887133 52.11129093 28.97454025 50.56653063 28.25 49 C27.37552031 47.35580028 26.49917441 45.71259195 25.62109375 44.0703125 C25.19425293 43.23016602 24.76741211 42.39001953 24.32763672 41.52441406 C22.21132312 37.50038269 19.75996782 33.70297688 17.3125 29.875 C15.889375 27.60625 14.46625 25.3375 13 23 C12.67 34.22 12.34 45.44 12 57 C8.04 57 4.08 57 0 57 C0 38.19 0 19.38 0 0 Z " fill="#191A1A" transform="translate(92,340)"/>
<path d="M0 0 C14 0 14 0 16.94921875 2.4296875 C17.52285156 3.56664062 18.09648437 4.70359375 18.6875 5.875 C19.37779932 7.14903788 20.06926756 8.4224429 20.76171875 9.6953125 C21.11282715 10.38399414 21.46393555 11.07267578 21.82568359 11.78222656 C24.0044221 15.8969169 26.5374471 19.80117022 29 23.75 C29.94035968 25.28470978 30.87806989 26.82104772 31.8125 28.359375 C32.21082031 29.01389648 32.60914063 29.66841797 33.01953125 30.34277344 C33.72544487 31.53593619 34.38000784 32.76001568 35 34 C35.33 22.78 35.66 11.56 36 0 C39.96 0 43.92 0 48 0 C48 18.81 48 37.62 48 57 C35 57 35 57 31.60546875 53.73828125 C30.75086224 52.29064172 29.94616547 50.8126464 29.1875 49.3125 C28.74792969 48.54389648 28.30835938 47.77529297 27.85546875 46.98339844 C26.96337754 45.42029386 26.0898835 43.84642043 25.23583984 42.26220703 C23.45690219 39.0058585 21.47885057 35.88708886 19.5 32.75 C17.31542199 29.17691901 15.15477113 25.59128522 13 22 C12.67 33.55 12.34 45.1 12 57 C8.04 57 4.08 57 0 57 C0 38.19 0 19.38 0 0 Z " fill="#1A1A1A" transform="translate(265,340)"/>
<path d="M0 0 C1.48831242 0.00667405 2.97660807 0.01863442 4.46484375 0.03515625 C5.22345703 0.03966797 5.98207031 0.04417969 6.76367188 0.04882812 C8.64326246 0.06064945 10.52281274 0.07858547 12.40234375 0.09765625 C15.47943395 6.48853589 17.77693121 12.99789328 19.97021484 19.72802734 C21.35120721 23.95920809 22.7702708 28.16982914 24.2734375 32.359375 C24.58627686 33.23360107 24.89911621 34.10782715 25.22143555 35.00854492 C25.82286006 36.68127163 26.42943801 38.35215844 27.04223633 40.02075195 C29.06051499 45.65664487 30.33664491 51.20496856 31.40234375 57.09765625 C26.78234375 57.09765625 22.16234375 57.09765625 17.40234375 57.09765625 C16.41234375 53.13765625 15.42234375 49.17765625 14.40234375 45.09765625 C7.80234375 45.09765625 1.20234375 45.09765625 -5.59765625 45.09765625 C-6.07203125 46.89203125 -6.54640625 48.68640625 -7.03515625 50.53515625 C-8.47265625 55.97265625 -8.47265625 55.97265625 -9.59765625 57.09765625 C-11.61729824 57.17009678 -13.63932749 57.18142813 -15.66015625 57.16015625 C-16.76488281 57.15113281 -17.86960938 57.14210938 -19.0078125 57.1328125 C-20.28978516 57.11541016 -20.28978516 57.11541016 -21.59765625 57.09765625 C-21.04102181 51.14141513 -19.76190803 45.97927915 -17.76171875 40.35546875 C-17.48170013 39.54705536 -17.20168152 38.73864197 -16.91317749 37.9057312 C-16.02372821 35.34206083 -15.12371626 32.78226611 -14.22265625 30.22265625 C-13.0449761 26.85137099 -11.87174341 23.47854995 -10.69921875 20.10546875 C-10.42015686 19.30610901 -10.14109497 18.50674927 -9.85357666 17.6831665 C-8.13290792 12.73000134 -6.52504964 7.76362922 -5.11865234 2.71044922 C-4.10555984 -0.42567501 -3.60421992 0.09783442 0 0 Z " fill="#1F1F1F" transform="translate(169.59765625,339.90234375)"/>
<path d="M0 0 C5.61 0 11.22 0 17 0 C20.96206147 11.21179098 24.84711261 22.44298646 28.56884766 33.73706055 C30.36343148 39.16344239 32.25539154 44.53236369 34.37109375 49.84375 C35 52 35 52 35 57 C30.71 57 26.42 57 22 57 C19 49.5 19 49.5 19 45 C12.07 45 5.14 45 -2 45 C-2.66 47.97 -3.32 50.94 -4 54 C-4.33 54.99 -4.66 55.98 -5 57 C-9.29 57 -13.58 57 -18 57 C-17.40241867 50.65509236 -15.42131307 45.09215231 -13.25 39.125 C-10.71666713 32.02726118 -8.30030777 24.94032892 -6.25 17.6875 C-4.52997596 11.60969935 -2.48936367 5.80851522 0 0 Z " fill="#1D1D1D" transform="translate(340,340)"/>
<path d="M0 0 C10.58491613 -0.5130444 16.9070376 2.91086393 24.75 9.7890625 C27.58086654 12.4109084 30.23448628 14.9592033 32.3125 18.2265625 C32.3125 19.2165625 32.3125 20.2065625 32.3125 21.2265625 C30.3325 21.5565625 28.3525 21.8865625 26.3125 22.2265625 C25.5390625 20.834375 25.5390625 20.834375 24.75 19.4140625 C22.27518495 15.63483229 19.504803 14.67774431 15.3125 13.2265625 C15.3125 16.6131996 15.66956033 17.00325537 17.8125 19.4140625 C18.6375 20.3421875 19.4625 21.2703125 20.3125 22.2265625 C17.3125 24.2265625 17.3125 24.2265625 15.375 24.1015625 C12.73789895 22.98279236 11.29224779 21.27017313 9.3125 19.2265625 C8.3225 18.8965625 7.3325 18.5665625 6.3125 18.2265625 C6.9725 20.5365625 7.6325 22.8465625 8.3125 25.2265625 C5.55664908 26.60448796 3.31913529 26.2850919 0.25 26.2265625 C-1.72880858 26.18891573 -3.70888259 26.17993823 -5.6875 26.2265625 C-6.0175 26.5565625 -6.3475 26.8865625 -6.6875 27.2265625 C-9.9375 27.6015625 -9.9375 27.6015625 -13.6875 27.2265625 C-16.125 25.1640625 -16.125 25.1640625 -18.6875 22.2265625 C-24.12399174 16.85129251 -29.71039646 13.329086 -36.6875 10.2265625 C-36.0275 8.5765625 -35.3675 6.9265625 -34.6875 5.2265625 C-31.03809279 5.55832679 -28.99526303 6.63361402 -26.1875 8.8515625 C-23.36672919 11.04251115 -23.36672919 11.04251115 -19.75 11.0390625 C-18.7290625 10.636875 -18.7290625 10.636875 -17.6875 10.2265625 C-17.6875 9.4840625 -17.6875 8.7415625 -17.6875 7.9765625 C-16.5206652 4.76776679 -15.92736216 4.4932149 -13 2.9765625 C-8.61949226 1.06057323 -4.75453064 0.40081799 0 0 Z " fill="#212121" transform="translate(286.6875,188.7734375)"/>
<path d="M0 0 C0.495 0.309375 0.99 0.61875 1.5 0.9375 C4.09754095 2.19356981 4.09754095 2.19356981 7.5625 2.3125 C13.06276284 2.89365985 18.37669728 4.98550912 23 8 C23.81640625 10.16796875 23.81640625 10.16796875 24 12 C16.44057765 18.26923248 5.8045902 20.244416 -3.625 22.1875 C-4.35589844 22.34210693 -5.08679688 22.49671387 -5.83984375 22.65600586 C-21.7622334 25.73511503 -37.91529439 26.33191475 -54.08789062 26.26074219 C-57.05358355 26.24980234 -60.01869772 26.26082998 -62.984375 26.2734375 C-64.88541799 26.27211922 -66.78646063 26.26956373 -68.6875 26.265625 C-69.56656006 26.26967346 -70.44562012 26.27372192 -71.35131836 26.27789307 C-72.57540405 26.26843658 -72.57540405 26.26843658 -73.82421875 26.25878906 C-74.89289185 26.25640228 -74.89289185 26.25640228 -75.9831543 26.25396729 C-78.3238907 25.95921471 -79.95857521 25.15491107 -82 24 C-81.34 22.68 -80.68 21.36 -80 20 C-78.35 20 -76.7 20 -75 20 C-74.505 15.545 -74.505 15.545 -74 11 C-64.27875317 13.36306988 -64.27875317 13.36306988 -60.875 16.625 C-57.10591612 19.73859103 -54.80371867 19.75153179 -50 20 C-50.350625 19.236875 -50.70125 18.47375 -51.0625 17.6875 C-52 15 -52 15 -51 12 C-50.34 12.66 -49.68 13.32 -49 14 C-48.01 14.309375 -47.02 14.61875 -46 14.9375 C-43 16 -43 16 -41 19 C-37.43230448 19.73606499 -37.43230448 19.73606499 -34 20 C-33.67 19.34 -33.34 18.68 -33 18 C-29.04 18 -25.08 18 -21 18 C-20.7763932 15.0745356 -20.7763932 15.0745356 -22 13 C-21.67 12.34 -21.34 11.68 -21 11 C-17.75791433 11.35049575 -16.38472296 11.56221181 -14.1875 14.0625 C-13.5996875 15.0215625 -13.5996875 15.0215625 -13 16 C-10.525 15.505 -10.525 15.505 -8 15 C-9.98 12.36 -11.96 9.72 -14 7 C-13.01 6.34 -12.02 5.68 -11 5 C-3.4726477 9.11378556 -3.4726477 9.11378556 -1.5 12.8125 C-1.335 13.534375 -1.17 14.25625 -1 15 C1.97 14.505 1.97 14.505 5 14 C4.38125 12.9275 3.7625 11.855 3.125 10.75 C2.58166016 9.7909375 2.58166016 9.7909375 2.02734375 8.8125 C1.25675651 7.45298486 0.47490809 6.09984244 -0.3125 4.75 C-1 3 -1 3 0 0 Z " fill="#1C1C1C" transform="translate(314,196)"/>
<path d="M0 0 C5.99841237 3.27339522 10.9725546 6.38227826 15 12 C15 12.33 15 12.66 15 13 C10.53761627 13.44623837 8.62175689 13.47927094 5 10.6875 C4.5875 10.25824219 4.175 9.82898438 3.75 9.38671875 C-1.64017183 5.11548884 -7.23330063 4.44398736 -13.875 4.5 C-14.67147949 4.50644531 -15.46795898 4.51289063 -16.28857422 4.51953125 C-22.62813613 4.71695256 -27.07284527 5.8340341 -32 10 C-33.00353516 10.76763672 -33.00353516 10.76763672 -34.02734375 11.55078125 C-42.26345705 18.68031503 -46.17228132 29.61431956 -50.3125 39.4375 C-50.869375 40.613125 -51.42625 41.78875 -52 43 C-52.99 43.33 -53.98 43.66 -55 44 C-55.99 43.505 -55.99 43.505 -57 43 C-56.34 41.35 -55.68 39.7 -55 38 C-55.99 37.505 -55.99 37.505 -57 37 C-57 36.01 -57 35.02 -57 34 C-56 33 -55 32 -54 31 C-53.30008904 29.34701879 -52.62968577 27.68098723 -52 26 C-62.56368371 29.87871297 -72.54997155 34.66373915 -78 45 C-77.48474579 48.38800816 -77.48474579 48.38800816 -76 51 C-75.01 51 -74.02 51 -73 51 C-73 51.66 -73 52.32 -73 53 C-81.6977771 52.10554775 -89.76233858 50.13640488 -97 45 C-98.01953125 42.9921875 -98.01953125 42.9921875 -98 41 C-94.97381491 36.59924493 -88.89154977 35.36745689 -84 34 C-81.53653557 33.72534273 -79.47995886 33.77955921 -77 34 C-76.64035156 33.12021484 -76.64035156 33.12021484 -76.2734375 32.22265625 C-73.28828777 27.01237957 -67.36546717 23.83831922 -61.84765625 21.8828125 C-57.14934626 20.66322647 -52.86636203 19.84931119 -48 20 C-47.7525 19.27683594 -47.505 18.55367187 -47.25 17.80859375 C-43.37253404 9.09641242 -35.36438628 3.09160412 -27 -1 C-19.14658492 -3.61780503 -7.633246 -2.97567217 0 0 Z " fill="#1C1C1C" transform="translate(274,164)"/>
<path d="M0 0 C3.96 0 7.92 0 12 0 C12 18.81 12 37.62 12 57 C7.38 57 2.76 57 -2 57 C-5.11652908 53.80457144 -6.43158183 52.08692119 -8.25 48.25 C-8.69472656 47.425 -9.13945313 46.6 -9.59765625 45.75 C-10.78697655 43.52227012 -11.90424797 41.27481919 -13 39 C-13.66505948 37.66586428 -14.3312278 36.33227848 -15 35 C-14.34 35 -13.68 35 -13 35 C-13 35.66 -13 36.32 -13 37 C-12.34 37 -11.68 37 -11 37 C-11 35.35 -11 33.7 -11 32 C-10.34 32.99 -9.68 33.98 -9 35 C-8.34 33.02 -7.68 31.04 -7 29 C-6.01 29 -5.02 29 -4 29 C-3.34 30.32 -2.68 31.64 -2 33 C-1.97494385 32.03586182 -1.9498877 31.07172363 -1.92407227 30.07836914 C-1.83014694 26.51312158 -1.72989061 22.94807567 -1.62768555 19.38305664 C-1.58428015 17.83785711 -1.54260929 16.29260786 -1.50268555 14.74731445 C-1.44511801 12.53060904 -1.38138576 10.3141552 -1.31640625 8.09765625 C-1.29133751 7.05545677 -1.29133751 7.05545677 -1.26576233 5.99220276 C-1.11387171 1.11387171 -1.11387171 1.11387171 0 0 Z " fill="#202020" transform="translate(128,340)"/>
<path d="M0 0 C1.59375 1.16796875 1.59375 1.16796875 3.59375 4.16796875 C-0.91288521 5.41981186 -0.91288521 5.41981186 -3.2734375 4.21484375 C-7.14010467 2.3169192 -11.20554807 2.64788184 -15.40625 3.16796875 C-22.75647265 6.5603792 -27.23263562 13.95681164 -30.40625 21.16796875 C-31.15729698 24.80796364 -31.72282107 28.44534018 -32.26953125 32.12109375 C-33.40625 35.16796875 -33.40625 35.16796875 -36.51171875 36.58984375 C-37.94451172 36.87601563 -37.94451172 36.87601563 -39.40625 37.16796875 C-39.40625 38.15796875 -39.40625 39.14796875 -39.40625 40.16796875 C-46.20706021 40.32806971 -52.62383544 39.74577559 -59.34375 38.73046875 C-60.28798828 38.59576172 -61.23222656 38.46105469 -62.20507812 38.32226562 C-69.13003419 37.30607665 -69.13003419 37.30607665 -71.40625 36.16796875 C-71.40625 35.50796875 -71.40625 34.84796875 -71.40625 34.16796875 C-72.39625 34.16796875 -73.38625 34.16796875 -74.40625 34.16796875 C-75.39625 32.18796875 -76.38625 30.20796875 -77.40625 28.16796875 C-70.98779268 19.14201315 -64.06541674 12.74204833 -53.40625 9.16796875 C-52.41625 9.16796875 -51.42625 9.16796875 -50.40625 9.16796875 C-51.21875 12.60546875 -51.21875 12.60546875 -52.40625 16.16796875 C-53.39625 16.49796875 -54.38625 16.82796875 -55.40625 17.16796875 C-55.07625 18.11671875 -54.74625 19.06546875 -54.40625 20.04296875 C-53.40625 23.16796875 -53.40625 23.16796875 -53.40625 25.16796875 C-52.41625 25.49796875 -51.42625 25.82796875 -50.40625 26.16796875 C-50.07625 25.50796875 -49.74625 24.84796875 -49.40625 24.16796875 C-50.06625 27.46796875 -50.72625 30.76796875 -51.40625 34.16796875 C-48.5019607 34.06004054 -48.5019607 34.06004054 -45.40625 33.16796875 C-43.48880407 30.72487298 -43.48880407 30.72487298 -42.40625 28.16796875 C-41.41625 29.15796875 -40.42625 30.14796875 -39.40625 31.16796875 C-39.07753906 29.82605469 -39.07753906 29.82605469 -38.7421875 28.45703125 C-36.03488065 18.13404823 -32.5525849 9.43361879 -24.40625 2.16796875 C-23.91125 1.61109375 -23.41625 1.05421875 -22.90625 0.48046875 C-16.41317184 -5.20097464 -7.03612511 -3.76317347 0 0 Z " fill="#202020" transform="translate(272.40625,180.83203125)"/>
<path d="M0 0 C5.28606175 0.09358653 9.30744655 0.44884439 13.52880859 3.91845703 C17.55722929 8.10267301 19.19466382 11.00093743 19.50537109 16.82470703 C19.30358921 22.52116486 17.75612281 25.21923422 13.94287109 29.38720703 C8.511313 33.00824576 2.9445901 32.51449381 -3.36962891 32.44970703 C-4.62356445 32.44293945 -4.62356445 32.44293945 -5.90283203 32.43603516 C-7.9542954 32.42431251 -10.00572164 32.40637906 -12.05712891 32.38720703 C-12.08178394 27.99064531 -12.09996733 23.59411983 -12.11206055 19.19750977 C-12.11710012 17.70075785 -12.12393178 16.20401088 -12.13256836 14.70727539 C-12.14465049 12.56020896 -12.15036082 10.41320741 -12.15478516 8.26611328 C-12.16002197 6.97261963 -12.16525879 5.67912598 -12.1706543 4.34643555 C-11.92739739 -1.99446111 -4.98641247 0.02440014 0 0 Z " fill="#202020" transform="translate(257.05712890625,415.61279296875)"/>
<path d="M0 0 C1.97909398 -0.02686553 3.95828971 -0.04633375 5.9375 -0.0625 C7.03964844 -0.07410156 8.14179688 -0.08570313 9.27734375 -0.09765625 C12 0 12 0 13 1 C13.13865397 3.91288086 13.21325478 6.80022331 13.23828125 9.71484375 C13.246353 10.59974991 13.25442474 11.48465607 13.26274109 12.39637756 C13.27660806 14.27863596 13.28731846 16.16091978 13.29516602 18.04321289 C13.31224276 20.89454746 13.35608704 23.74468094 13.40039062 26.59570312 C13.578835 47.22573512 13.578835 47.22573512 7.33544922 53.7355957 C2.11721021 58.13515099 -4.46793318 57.43825984 -10.90234375 57.2734375 C-14 57 -14 57 -15 56 C-15.07226502 54.14712498 -15.0838122 52.29166122 -15.0625 50.4375 C-15.05347656 49.42558594 -15.04445312 48.41367187 -15.03515625 47.37109375 C-15.02355469 46.58863281 -15.01195312 45.80617188 -15 45 C-14.32453125 45.04640625 -13.6490625 45.0928125 -12.953125 45.140625 C-12.06109375 45.17671875 -11.1690625 45.2128125 -10.25 45.25 C-9.36828125 45.29640625 -8.4865625 45.3428125 -7.578125 45.390625 C-4.93702738 45.17984382 -4.93702738 45.17984382 -2.87695312 43.56054688 C-0.07712276 39.74100721 -0.39711247 36.26704291 -0.390625 31.640625 C-0.37408875 30.73624695 -0.35755249 29.8318689 -0.34051514 28.90008545 C-0.29200021 26.01665479 -0.27065656 23.13375166 -0.25 20.25 C-0.22184322 18.29294216 -0.19191621 16.33590893 -0.16015625 14.37890625 C-0.08624031 9.58598092 -0.03668702 4.79334904 0 0 Z " fill="#212121" transform="translate(223,340)"/>
<path d="M0 0 C3.96 0 7.92 0 12 0 C12.0992969 6.11974418 12.17167096 12.23901352 12.21972656 18.359375 C12.23977159 20.43888525 12.26701513 22.51833963 12.30175781 24.59765625 C12.35058948 27.59649487 12.37304028 30.59458463 12.390625 33.59375 C12.41127014 34.51490601 12.43191528 35.43606201 12.45318604 36.38513184 C12.45523929 42.36777569 11.53333701 47.06027926 8 52 C3.00420407 55.97624574 -0.70363118 57.14043228 -7 57.125 C-8.051875 57.12757813 -9.10375 57.13015625 -10.1875 57.1328125 C-13 57 -13 57 -16 56 C-16 52.37 -16 48.74 -16 45 C-11.84960938 45.04882812 -11.84960938 45.04882812 -7.69921875 45.09765625 C-4.90036151 45.12329862 -4.90036151 45.12329862 -2 44 C-0.99750318 41.31848256 -0.85766408 38.7174069 -0.79467773 35.87402344 C-0.77473251 35.07349548 -0.75478729 34.27296753 -0.73423767 33.44818115 C-0.71752518 32.59387512 -0.70081268 31.73956909 -0.68359375 30.859375 C-0.66281265 29.97719299 -0.64203156 29.09501099 -0.62062073 28.18609619 C-0.55535133 25.37414169 -0.49634553 22.56209555 -0.4375 19.75 C-0.39429327 17.84113644 -0.35067829 15.93228207 -0.30664062 14.0234375 C-0.19969313 9.34905174 -0.09836215 4.67457398 0 0 Z " fill="#191919" transform="translate(397,340)"/>
<path d="M0 0 C7 0 7 0 8.97216797 1.54467773 C9.47377441 2.25052002 9.97538086 2.9563623 10.4921875 3.68359375 C11.05164063 4.44607422 11.61109375 5.20855469 12.1875 5.99414062 C13.0228125 7.20360352 13.0228125 7.20360352 13.875 8.4375 C14.45507812 9.23994141 15.03515625 10.04238281 15.6328125 10.86914062 C16.70048901 12.34717411 17.75864779 13.83216124 18.80419922 15.32592773 C19.89454741 16.94934254 19.89454741 16.94934254 21 18 C21.33 12.06 21.66 6.12 22 0 C24.31 0 26.62 0 29 0 C29 10.56 29 21.12 29 32 C22 32 22 32 19.48828125 29.76953125 C18.77027344 28.79371094 18.05226562 27.81789063 17.3125 26.8125 C16.22388672 25.36810547 16.22388672 25.36810547 15.11328125 23.89453125 C14.41589844 22.93933594 13.71851563 21.98414063 13 21 C11.68 19.35 10.36 17.7 9 16 C8.67 21.28 8.34 26.56 8 32 C5.36 32 2.72 32 0 32 C0 21.44 0 10.88 0 0 Z " fill="#282828" transform="translate(158,416)"/>
<path d="M0 0 C2.64 0 5.28 0 8 0 C8.01981934 0.61520508 8.03963867 1.23041016 8.06005859 1.86425781 C8.15549727 4.65992542 8.26509955 7.4548651 8.375 10.25 C8.4059375 11.21808594 8.436875 12.18617188 8.46875 13.18359375 C8.50742188 14.11816406 8.54609375 15.05273438 8.5859375 16.015625 C8.6173584 16.87446289 8.6487793 17.73330078 8.68115234 18.61816406 C9.01716204 21.1282028 9.74191728 22.81932328 11 25 C15.59645424 25.4572675 15.59645424 25.4572675 19.69848633 23.80737305 C21.416742 21.42128286 21.42715834 19.82032147 21.51171875 16.89453125 C21.54716797 15.91162109 21.58261719 14.92871094 21.61914062 13.91601562 C21.64169922 12.89185547 21.66425781 11.86769531 21.6875 10.8125 C21.72166016 9.77673828 21.75582031 8.74097656 21.79101562 7.67382812 C21.87352642 5.1159934 21.94266572 2.55850277 22 0 C24.31 0 26.62 0 29 0 C29.08732726 3.89569135 29.14050185 7.79112982 29.1875 11.6875 C29.21263672 12.79029297 29.23777344 13.89308594 29.26367188 15.02929688 C29.27333984 16.09599609 29.28300781 17.16269531 29.29296875 18.26171875 C29.3086792 19.24100342 29.32438965 20.22028809 29.34057617 21.22924805 C28.93529959 24.52636918 27.95567221 26.33426133 26 29 C21.39194538 32.40996042 17.8909488 33.6647301 12.14453125 33.390625 C7.79251776 32.59790852 5.03099549 30.17320177 2.1875 26.9375 C0.10558615 23.5406932 -0.12013295 20.78300046 -0.09765625 16.89453125 C-0.09443359 15.91162109 -0.09121094 14.92871094 -0.08789062 13.91601562 C-0.07951172 12.89185547 -0.07113281 11.86769531 -0.0625 10.8125 C-0.05798828 9.77673828 -0.05347656 8.74097656 -0.04882812 7.67382812 C-0.0370401 5.11582734 -0.02058515 2.55794267 0 0 Z " fill="#272727" transform="translate(201,416)"/>
<path d="M0 0 C7.26 0 14.52 0 22 0 C22 2.31 22 4.62 22 7 C17.05 7 12.1 7 7 7 C7 8.98 7 10.96 7 13 C10.96 13 14.92 13 19 13 C19 15.31 19 17.62 19 20 C15.37 20 11.74 20 8 20 C8 21.65 8 23.3 8 25 C12.95 25 17.9 25 23 25 C23 27.31 23 29.62 23 32 C15.41 32 7.82 32 0 32 C0 21.44 0 10.88 0 0 Z " fill="#252525" transform="translate(323,416)"/>
<path d="M0 0 C0.78431396 0.00660645 1.56862793 0.01321289 2.37670898 0.02001953 C8.71480952 0.22838467 14.02969312 1.58743789 19.125 5.5625 C19.62 6.5525 19.62 6.5525 20.125 7.5625 C19.135 8.5525 18.145 9.5425 17.125 10.5625 C16.53074219 10.2015625 15.93648438 9.840625 15.32421875 9.46875 C8.81660481 5.82529585 3.55820273 4.39800118 -3.875 5.5625 C-12.76235549 8.09971951 -19.47643358 13.87899788 -24.390625 21.59375 C-28.38425528 29.58101056 -31.37721882 38.75202246 -32.875 47.5625 C-34.855 47.5625 -36.835 47.5625 -38.875 47.5625 C-36.7381182 31.19848411 -30.32566527 14.97050308 -16.875 4.5625 C-11.31303563 1.02243503 -6.55114819 -0.12502459 0 0 Z " fill="#EBEBEB" transform="translate(259.875,167.4375)"/>
<path d="M0 0 C4.06676056 1.95676015 6.59206977 3.17326091 9.1328125 6.984375 C8.2578125 10.171875 8.2578125 10.171875 7.1328125 12.984375 C6.1428125 12.654375 5.1528125 12.324375 4.1328125 11.984375 C4.1328125 11.324375 4.1328125 10.664375 4.1328125 9.984375 C-1.98546741 6.35872764 -6.74515379 4.96864872 -13.8671875 5.984375 C-17.2022608 7.23380841 -17.2022608 7.23380841 -19.8671875 8.984375 C-20.6096875 9.29375 -21.3521875 9.603125 -22.1171875 9.921875 C-24.37080807 11.29014463 -24.72257441 12.62413267 -25.8671875 14.984375 C-26.82377495 16.44385413 -27.78226679 17.90208604 -28.7421875 19.359375 C-32.01228935 24.69522411 -33.52386875 30.12936132 -35.0078125 36.17578125 C-35.29140625 37.10261719 -35.575 38.02945313 -35.8671875 38.984375 C-36.8571875 39.479375 -36.8571875 39.479375 -37.8671875 39.984375 C-38.5271875 38.994375 -39.1871875 38.004375 -39.8671875 36.984375 C-40.8571875 38.304375 -41.8471875 39.624375 -42.8671875 40.984375 C-40.9797048 27.01700306 -36.32622591 14.72622221 -25.8671875 4.984375 C-18.16469537 -0.62176876 -9.20949306 -3.26221825 0 0 Z " fill="#202020" transform="translate(269.8671875,173.015625)"/>
<path d="M0 0 C2.54283234 -0.10871967 5.08095088 -0.18762401 7.625 -0.25 C8.33785156 -0.28351563 9.05070312 -0.31703125 9.78515625 -0.3515625 C15.01276139 -0.44748186 17.82926707 0.59266015 22 4 C26.14867937 8.47620669 26.66966466 12.41215935 26.4609375 18.3046875 C25.71917631 22.64210465 23.95597015 24.76905588 21 28 C17.84685215 30.10209857 17.13896919 30.2434761 13.55078125 30.1953125 C12.27944336 30.18564453 12.27944336 30.18564453 10.98242188 30.17578125 C10.10134766 30.15902344 9.22027344 30.14226562 8.3125 30.125 C7.41982422 30.11597656 6.52714844 30.10695313 5.60742188 30.09765625 C3.40467686 30.07409748 1.20247412 30.04120329 -1 30 C-0.67 29.01 -0.34 28.02 0 27 C-0.66 26.67 -1.32 26.34 -2 26 C-1.34 25.34 -0.68 24.68 0 24 C0 24.66 0 25.32 0 26 C2.08614437 25.79801781 4.16904068 25.56230679 6.25 25.3125 C7.41015625 25.18488281 8.5703125 25.05726563 9.765625 24.92578125 C13.72704775 23.79189575 14.88767658 22.48275764 17 19 C17.44279717 14.79342689 17.52203994 11.48420546 15 8 C12.20414811 7.03871627 12.20414811 7.03871627 9 6.6875 C7.9275 6.52636719 6.855 6.36523438 5.75 6.19921875 C3.03931617 5.76756254 3.03931617 5.76756254 1 7 C0.67 6.01 0.34 5.02 0 4 C0.66 3.67 1.32 3.34 2 3 C1.34 2.67 0.68 2.34 0 2 C0 1.34 0 0.68 0 0 Z " fill="#222222" transform="translate(250,417)"/>
<path d="M0 0 C5.99841237 3.27339522 10.9725546 6.38227826 15 12 C15 12.33 15 12.66 15 13 C10.53761627 13.44623837 8.62175689 13.47927094 5 10.6875 C4.5875 10.25824219 4.175 9.82898438 3.75 9.38671875 C-1.64017183 5.11548884 -7.23330063 4.44398736 -13.875 4.5 C-14.67147949 4.50644531 -15.46795898 4.51289063 -16.28857422 4.51953125 C-23.88563482 4.75611253 -28.74462899 6.60898853 -34.0625 12.1484375 C-34.743125 12.88320312 -35.42375 13.61796875 -36.125 14.375 C-38.0703125 16.4609375 -38.0703125 16.4609375 -40 18 C-44 18 -44 18 -47 17 C-35.91770572 1.00577309 -19.29586452 -7.52211668 0 0 Z " fill="#1D1D1D" transform="translate(274,164)"/>
<path d="M0 0 C2.31 0 4.62 0 7 0 C7 8.25 7 16.5 7 25 C11.95 25 16.9 25 22 25 C22 27.31 22 29.62 22 32 C14.41 32 6.82 32 -1 32 C-1.02291238 27.60336967 -1.04283833 23.20694512 -1.05493164 18.81030273 C-1.05997121 17.31355082 -1.06680287 15.81680384 -1.07543945 14.32006836 C-1.08752159 12.17300193 -1.09323191 10.02600038 -1.09765625 7.87890625 C-1.10289307 6.5854126 -1.10812988 5.29191895 -1.11352539 3.95922852 C-1 1 -1 1 0 0 Z " fill="#323232" transform="translate(289,416)"/>
<path d="M0 0 C1.59375 1.16796875 1.59375 1.16796875 3.59375 4.16796875 C-0.91288521 5.41981186 -0.91288521 5.41981186 -3.2734375 4.21484375 C-7.14010467 2.3169192 -11.20554807 2.64788184 -15.40625 3.16796875 C-22.7848398 6.57347174 -27.18687647 13.95516467 -30.40625 21.16796875 C-31.04122851 23.60858575 -31.60366017 26.06918198 -32.09375 28.54296875 C-32.34511719 29.78820312 -32.59648437 31.0334375 -32.85546875 32.31640625 C-33.12810547 33.72792969 -33.12810547 33.72792969 -33.40625 35.16796875 C-35.38625 35.16796875 -37.36625 35.16796875 -39.40625 35.16796875 C-38.73990267 22.06313802 -33.32357493 9.75589725 -23.78125 0.66796875 C-16.01262001 -4.2385344 -8.08375284 -4.32348257 0 0 Z " fill="#EEEEEE" transform="translate(272.40625,180.83203125)"/>
<path d="M0 0 C3.63 0 7.26 0 11 0 C10.34 0.66 9.68 1.32 9 2 C8.01 2 7.02 2 6 2 C5.34 3.32 4.68 4.64 4 6 C5.2065625 6.309375 5.2065625 6.309375 6.4375 6.625 C12.6852365 9.03640707 18.18928568 12.41095233 22 18 C20.33333333 18 18.66666667 18 17 18 C17.33 19.65 17.66 21.3 18 23 C10.77080771 23.62320623 10.77080771 23.62320623 7.0625 20.625 C6.59714844 20.16996094 6.13179687 19.71492188 5.65234375 19.24609375 C2.56518691 16.91795419 -1.2484933 16.55855766 -5 16 C-5.71518833 9.2772297 -3.51669198 5.71462446 0 0 Z " fill="#202020" transform="translate(246,193)"/>
<path d="M0 0 C7.66555149 6.722611 7.66555149 6.722611 10.26171875 10.8046875 C10.26171875 11.7946875 10.26171875 12.7846875 10.26171875 13.8046875 C7.29171875 14.2996875 7.29171875 14.2996875 4.26171875 14.8046875 C3.89820313 14.28519531 3.5346875 13.76570313 3.16015625 13.23046875 C-1.52814703 6.72695061 -6.57850387 0.76907835 -14.73828125 -1.1953125 C-21.92588034 -2.01847329 -27.49774805 -1.52789424 -33.80078125 2.125 C-35.73828125 2.8046875 -35.73828125 2.8046875 -37.98828125 1.921875 C-38.56578125 1.55320313 -39.14328125 1.18453125 -39.73828125 0.8046875 C-39.17578125 -1.0078125 -39.17578125 -1.0078125 -37.73828125 -3.1953125 C-24.87130843 -9.87624069 -11.24505576 -9.01529435 0 0 Z " fill="#ECECEC" transform="translate(308.73828125,196.1953125)"/>
<path d="M0 0 C1.29550781 -0.03867188 1.29550781 -0.03867188 2.6171875 -0.078125 C5.57524649 0.30891076 6.91701784 1.29875995 9.125 3.25 C8.58875 3.91 8.0525 4.57 7.5 5.25 C5.51812883 9.57408255 6.69045263 11.79535291 8.125 16.25 C5.625 17.625 5.625 17.625 2.125 18.25 C-0.88205146 16.63869465 -3.41919216 14.61231262 -5.875 12.25 C-5.875 11.92 -5.875 11.59 -5.875 11.25 C-8.845 11.25 -11.815 11.25 -14.875 11.25 C-13.43814642 6.22101246 -10.93263331 4.29322498 -6.875 1.25 C-4.43545342 0.03022671 -2.72194151 0.04846187 0 0 Z " fill="#252525" transform="translate(261.875,182.75)"/>
<path d="M0 0 C9 0 9 0 13 2 C15.54160859 5.43117159 15.36988233 8.85731795 15 13 C13.23984869 16.1850357 12.50109084 16.83296972 9 18 C6.03 18 3.06 18 0 18 C0 12.06 0 6.12 0 0 Z " fill="#F3F3F3" transform="translate(253,423)"/>
<path d="M0 0 C3.90198139 1.50209018 5.44517968 3.70586572 7.75 7.125 C11.38479502 12.31073199 15.36621137 16.69895683 20 21 C18.65578588 24.08529145 18.07119625 24.95356766 15.125 26.875 C12 28 12 28 9.75 27.4375 C7.69689645 25.75102208 7.1434117 24.39414725 6 22 C5.51402344 21.10925781 5.02804688 20.21851562 4.52734375 19.30078125 C1.20132715 13.04917756 -0.88331977 8.11749429 -1 1 C-0.67 0.67 -0.34 0.34 0 0 Z " fill="#1E1E1E" transform="translate(223,44)"/>
<path d="M0 0 C2.31 0 4.62 0 7 0 C7 10.23 7 20.46 7 31 C5.35 30.67 3.7 30.34 2 30 C2.33 29.01 2.66 28.02 3 27 C2.34 26.67 1.68 26.34 1 26 C0.67 26.66 0.34 27.32 0 28 C-0.75238592 25.74284225 -1.07190772 24.31160011 -0.53125 21.96875 C0.23179947 17.70465005 0.10439618 13.50925221 0.0625 9.1875 C0.05798828 8.30384766 0.05347656 7.42019531 0.04882812 6.50976562 C0.03709866 4.33981441 0.01916495 2.16989828 0 0 Z " fill="#181818" transform="translate(180,416)"/>
<path d="M0 0 C2.97 0.495 2.97 0.495 6 1 C3.96501548 6.13393126 1.78489403 11.1948614 -0.4375 16.25 C-1.03014648 17.63445312 -1.03014648 17.63445312 -1.63476562 19.046875 C-2.02212891 19.9234375 -2.40949219 20.8 -2.80859375 21.703125 C-3.33151001 22.90437012 -3.33151001 22.90437012 -3.86499023 24.12988281 C-5 26 -5 26 -8 27 C-8.66 26.67 -9.32 26.34 -10 26 C-9.34 24.35 -8.68 22.7 -8 21 C-8.66 20.67 -9.32 20.34 -10 20 C-10 19.01 -10 18.02 -10 17 C-9 16 -8 15 -7 14 C-5.80972016 11.40084462 -5.80972016 11.40084462 -5 9 C-6.65 9 -8.3 9 -10 9 C-10 7.33333333 -10 5.66666667 -10 4 C-5.545 3.505 -5.545 3.505 -1 3 C-0.67 2.01 -0.34 1.02 0 0 Z " fill="#1B1B1B" transform="translate(227,181)"/>
<path d="M0 0 C4.73967439 0.50782226 7.9883381 2.7007651 11.75 5.4375 C12.36182129 5.87763428 12.97364258 6.31776855 13.60400391 6.77124023 C19.14162849 10.87822686 23.80237368 15.50310839 28 21 C28 21.33 28 21.66 28 22 C24.8125 22.3125 24.8125 22.3125 21 22 C18.5625 19.9375 18.5625 19.9375 16 17 C10.56350826 11.62473001 4.97710354 8.1025235 -2 5 C-1.34 3.35 -0.68 1.7 0 0 Z " fill="#E8E8E8" transform="translate(252,194)"/>
<path d="M0 0 C0.66 0 1.32 0 2 0 C2.36351562 1.39412109 2.36351562 1.39412109 2.734375 2.81640625 C4.52413448 9.41786524 6.40538869 15.14211491 10 21 C9.67 21.66 9.34 22.32 9 23 C7.68 23.33 6.36 23.66 5 24 C5 27.63 5 31.26 5 35 C-1.00529024 28.99470976 -1.12348952 21.09428512 -1.13671875 13.08398438 C-1.13285156 12.29314453 -1.12898437 11.50230469 -1.125 10.6875 C-1.12886719 9.87732422 -1.13273438 9.06714844 -1.13671875 8.23242188 C-1.12676222 2.25352444 -1.12676222 2.25352444 0 0 Z " fill="#242424" transform="translate(140,220)"/>
<path d="M0 0 C0.66 0 1.32 0 2 0 C3.0070436 3.1019264 4.00440805 6.20688098 5 9.3125 C5.28617188 10.19357422 5.57234375 11.07464844 5.8671875 11.98242188 C6.13789063 12.82998047 6.40859375 13.67753906 6.6875 14.55078125 C7.06455078 15.72120972 7.06455078 15.72120972 7.44921875 16.9152832 C8 19 8 19 8 22 C3.38 22 -1.24 22 -6 22 C-4.1921764 14.59653194 -2.26948386 7.27522486 0 0 Z " fill="#EEEEEE" transform="translate(173,353)"/>
<path d="M0 0 C2.32602868 3.48904301 3.41117582 7.03390006 4.625 11 C4.85445313 11.72445313 5.08390625 12.44890625 5.3203125 13.1953125 C6.26068056 16.22911898 7 18.80543588 7 22 C2.71 22 -1.58 22 -6 22 C-5.38869449 17.04587829 -4.39455415 12.43416099 -3 7.625 C-2.649375 6.40039062 -2.29875 5.17578125 -1.9375 3.9140625 C-1 1 -1 1 0 0 Z " fill="#EAEAEA" transform="translate(348,353)"/>
<path d="M0 0 C-0.5625 3.375 -0.5625 3.375 -2 7 C-5.25 8.1875 -5.25 8.1875 -9 9 C-14.56655417 11.89460817 -17.06777466 15.65452725 -20 21 C-22.31 20.67 -24.62 20.34 -27 20 C-21.53343283 10.54605442 -11.85818212 0 0 0 Z " fill="#EEEEEE" transform="translate(222,190)"/>
<path d="M0 0 C0.66 0.33 1.32 0.66 2 1 C2.08165496 3.20770805 2.13948488 5.41630425 2.1875 7.625 C2.23970703 9.46964844 2.23970703 9.46964844 2.29296875 11.3515625 C1.87891161 16.50795406 -0.17690539 19.76535808 -3 24 C-4.99338221 24.37086181 -6.99512332 24.69737711 -9 25 C-11.39791607 25.88900696 -13.67364882 26.92987846 -16 28 C-15.42655063 25.13275314 -15.1385485 24.1385485 -13 22 C-12.154375 21.71125 -11.30875 21.4225 -10.4375 21.125 C-7.81552157 20.2590293 -7.81552157 20.2590293 -7.1875 17.875 C-7.125625 17.25625 -7.06375 16.6375 -7 16 C-6.34 16 -5.68 16 -5 16 C-5.66 14.35 -6.32 12.7 -7 11 C-5.68 10.34 -4.36 9.68 -3 9 C-3 8.34 -3 7.68 -3 7 C-2.34 7 -1.68 7 -1 7 C-1.020625 6.030625 -1.04125 5.06125 -1.0625 4.0625 C-1 1 -1 1 0 0 Z " fill="#1D1D1D" transform="translate(326,109)"/>
<path d="M0 0 C4.21459373 3.95118162 7.69725667 8.32379638 11.23046875 12.890625 C12.8290786 15.08029809 12.8290786 15.08029809 15 16 C14.67 18.31 14.34 20.62 14 23 C15.32 23.33 16.64 23.66 18 24 C17.67 24.99 17.34 25.98 17 27 C18.32 27.66 19.64 28.32 21 29 C17.79296875 29.32421875 17.79296875 29.32421875 14 29 C11.48828125 26.76953125 11.48828125 26.76953125 9.3125 23.8125 C8.22388672 22.36810547 8.22388672 22.36810547 7.11328125 20.89453125 C6.41589844 19.93933594 5.71851563 18.98414063 5 18 C4.25105469 17.09636719 3.50210938 16.19273437 2.73046875 15.26171875 C1 13 1 13 1 11 C2.33333333 10.33333333 3.66666667 9.66666667 5 9 C5 8.34 5 7.68 5 7 C4.071875 6.9071875 4.071875 6.9071875 3.125 6.8125 C1 6 1 6 -0.25 3.4375 C-0.4975 2.633125 -0.745 1.82875 -1 1 C-0.67 0.67 -0.34 0.34 0 0 Z " fill="#1E1E1E" transform="translate(166,419)"/>
<path d="M0 0 C9.33961979 1.84972989 17.28895148 6.30266199 22.90625 14.1015625 C22.90625 14.4315625 22.90625 14.7615625 22.90625 15.1015625 C18.44386627 15.54780087 16.52800689 15.58083344 12.90625 12.7890625 C12.40996094 12.33402344 11.91367187 11.87898437 11.40234375 11.41015625 C4.91154954 5.73282972 -3.95917864 6.40516941 -12.09375 6.1015625 C-12.09375 5.7715625 -12.09375 5.4415625 -12.09375 5.1015625 C-9.78375 5.1015625 -7.47375 5.1015625 -5.09375 5.1015625 C-5.09375 4.4415625 -5.09375 3.7815625 -5.09375 3.1015625 C-3.49306064 0.93652754 -2.73581865 0.13270762 0 0 Z " fill="#2D2D2D" transform="translate(266.09375,161.8984375)"/>
<path d="M0 0 C4.5544625 2.21330897 7.39549294 5.36512936 10.3125 9.4375 C7.3125 11.4375 7.3125 11.4375 5.375 11.3125 C2.73017661 10.19045371 1.30218376 8.48936138 -0.6875 6.4375 C-5.09586459 3.51871979 -9.71561633 4.4264357 -14.7890625 4.66015625 C-15.74554688 4.58667969 -16.70203125 4.51320312 -17.6875 4.4375 C-18.3475 3.4475 -19.0075 2.4575 -19.6875 1.4375 C-13.11535171 -2.60689895 -7.10133751 -2.77358637 0 0 Z " fill="#E3E3E3" transform="translate(296.6875,201.5625)"/>
<path d="M0 0 C2.54283234 -0.10871967 5.08095088 -0.18762401 7.625 -0.25 C8.33785156 -0.28351563 9.05070312 -0.31703125 9.78515625 -0.3515625 C14.9838166 -0.44695076 17.88538513 0.54575542 22 4 C22.875 6.25 22.875 6.25 23 8 C20.875 9.1875 20.875 9.1875 18 10 C15.98199105 9.03685937 13.98450156 8.03041427 12 7 C6.37911963 5.76050819 6.37911963 5.76050819 1 7 C0.67 6.01 0.34 5.02 0 4 C0.66 3.67 1.32 3.34 2 3 C1.34 2.67 0.68 2.34 0 2 C0 1.34 0 0.68 0 0 Z " fill="#191919" transform="translate(250,417)"/>
<path d="M0 0 C1.98 0 3.96 0 6 0 C6 7.59 6 15.18 6 23 C5.01 23.33 4.02 23.66 3 24 C1 23 1 23 0.38110352 21.22167969 C-0.01444158 18.91581142 -0.11345788 16.7917669 -0.09765625 14.453125 C-0.09443359 13.60878906 -0.09121094 12.76445312 -0.08789062 11.89453125 C-0.07951172 11.02183594 -0.07113281 10.14914062 -0.0625 9.25 C-0.05798828 8.36183594 -0.05347656 7.47367187 -0.04882812 6.55859375 C-0.037074 4.37232671 -0.02064249 2.18619821 0 0 Z " fill="#171717" transform="translate(224,417)"/>
<path d="M0 0 C0.66 0.33 1.32 0.66 2 1 C1.01 2.485 1.01 2.485 0 4 C0.99 4.66 1.98 5.32 3 6 C0.33681412 6.98961566 -2.32993307 7.96676851 -5 8.9375 C-5.74378906 9.21529297 -6.48757813 9.49308594 -7.25390625 9.77929688 C-12.20476843 11.56591236 -16.75508851 12.52914999 -22 13 C-21.34 11.68 -20.68 10.36 -20 9 C-20.66 8.34 -21.32 7.68 -22 7 C-20.83082031 6.66226563 -19.66164063 6.32453125 -18.45703125 5.9765625 C-16.90881606 5.52617263 -15.36064109 5.0756445 -13.8125 4.625 C-13.04357422 4.40328125 -12.27464844 4.1815625 -11.48242188 3.953125 C-8.26450229 3.01398967 -5.16966088 2.07112619 -2.07421875 0.7734375 C-1.38972656 0.51820313 -0.70523437 0.26296875 0 0 Z " fill="#E9E9E9" transform="translate(334,210)"/>
<path d="M0 0 C0.33 0.66 0.66 1.32 1 2 C0.505 2.804375 0.01 3.60875 -0.5 4.4375 C-0.995 5.283125 -1.49 6.12875 -2 7 C-1.67 7.99 -1.34 8.98 -1 10 C-0.01 9.67 0.98 9.34 2 9 C2.33 9.99 2.66 10.98 3 12 C0.01986652 14.98013348 -3.33347388 16.7467571 -7.0625 18.625 C-7.94035156 19.07101563 -8.81820312 19.51703125 -9.72265625 19.9765625 C-12 21 -12 21 -14 21 C-10.98476393 12.89299736 -5.71288169 6.39298666 0 0 Z " fill="#1B1B1B" transform="translate(155,112)"/>
<path d="M0 0 C0.99 0.33 1.98 0.66 3 1 C3 1.66 3 2.32 3 3 C3.66 3.33 4.32 3.66 5 4 C4 6 4 6 1 8 C0.67 8.33 0.34 8.66 0 9 C-2.86267567 9.07325168 -5.700719 9.09238205 -8.5625 9.0625 C-9.36880859 9.05798828 -10.17511719 9.05347656 -11.00585938 9.04882812 C-13.00393756 9.03700518 -15.00197783 9.01906914 -17 9 C-16.67 8.01 -16.34 7.02 -16 6 C-16.66 5.67 -17.32 5.34 -18 5 C-17.34 4.34 -16.68 3.68 -16 3 C-16 3.66 -16 4.32 -16 5 C-13.8939014 4.74462428 -11.79011246 4.47014626 -9.6875 4.1875 C-8.51574219 4.03667969 -7.34398437 3.88585937 -6.13671875 3.73046875 C-3.00579726 3.00135005 -1.90354807 2.50828536 0 0 Z M3 0 C5 1 5 1 5 1 Z " fill="#161616" transform="translate(266,438)"/>
<path d="M0 0 C1.46373047 0.02707031 1.46373047 0.02707031 2.95703125 0.0546875 C3.69308594 0.07789063 4.42914063 0.10109375 5.1875 0.125 C5.1875 0.455 5.1875 0.785 5.1875 1.125 C4.13949219 1.18107422 4.13949219 1.18107422 3.0703125 1.23828125 C1.70519531 1.33689453 1.70519531 1.33689453 0.3125 1.4375 C-1.04488281 1.52451172 -1.04488281 1.52451172 -2.4296875 1.61328125 C-5.17471601 1.9132039 -5.17471601 1.9132039 -6.8125 5.125 C-7.4725 5.125 -8.1325 5.125 -8.8125 5.125 C-9.26625 5.90875 -9.72 6.6925 -10.1875 7.5 C-11.95908095 10.36178462 -12.90705895 10.71914143 -15.8125 12.125 C-16.90416275 14.05830603 -16.90416275 14.05830603 -17.8125 16.125 C-19.4375 17.875 -19.4375 17.875 -20.8125 19.125 C-20.4825 16.815 -20.1525 14.505 -19.8125 12.125 C-20.8025 12.125 -21.7925 12.125 -22.8125 12.125 C-17.13540325 4.55553766 -9.73926534 -0.23468109 0 0 Z " fill="#2B2B2B" transform="translate(261.8125,171.875)"/>
<path d="M0 0 C0.556875 0.226875 1.11375 0.45375 1.6875 0.6875 C1.0275 0.6875 0.3675 0.6875 -0.3125 0.6875 C0.079375 1.574375 0.47125 2.46125 0.875 3.375 C1.6875 6.6875 1.6875 6.6875 0.375 9.3125 C-0.4603125 10.488125 -0.4603125 10.488125 -1.3125 11.6875 C-2.00829454 13.87880534 -2.00829454 13.87880534 -2.3125 15.6875 C-4.2925 15.6875 -6.2725 15.6875 -8.3125 15.6875 C-8.3125 11.83455171 -8.0073924 10.86542326 -6.3125 7.6875 C-6.3125 7.0275 -6.3125 6.3675 -6.3125 5.6875 C-7.9625 6.0175 -9.6125 6.3475 -11.3125 6.6875 C-4.51779801 -0.61051325 -4.51779801 -0.61051325 0 0 Z " fill="#2A2A2A" transform="translate(217.3125,197.3125)"/>
<path d="M0 0 C2.31 0 4.62 0 7 0 C7 0.33 7 0.66 7 1 C5.02 1 3.04 1 1 1 C1.33 8.59 1.66 16.18 2 24 C3.32 24.33 4.64 24.66 6 25 C4.54744301 28.82946843 2.57104439 30.12050295 -1 32 C-1.33 31.01 -1.66 30.02 -2 29 C-2.66 29 -3.32 29 -4 29 C-4 28.34 -4 27.68 -4 27 C-4.99 27.33 -5.98 27.66 -7 28 C-7.66 27.34 -8.32 26.68 -9 26 C-7.865625 25.71125 -6.73125 25.4225 -5.5625 25.125 C-4.386875 24.75375 -3.21125 24.3825 -2 24 C-0.76939579 21.53879159 -0.7942277 19.74223134 -0.68359375 16.9921875 C-0.64169922 16.00605469 -0.59980469 15.01992188 -0.55664062 14.00390625 C-0.51732422 12.97136719 -0.47800781 11.93882812 -0.4375 10.875 C-0.39431641 9.83472656 -0.35113281 8.79445313 -0.30664062 7.72265625 C-0.2003712 5.14857472 -0.09833417 2.57439492 0 0 Z " fill="#303030" transform="translate(223,416)"/>
<path d="M0 0 C4.62509876 1.31753555 8.0101877 3.15114107 11.875 6 C13.32519531 7.051875 13.32519531 7.051875 14.8046875 8.125 C15.89136719 9.053125 15.89136719 9.053125 17 10 C17 10.66 17 11.32 17 12 C9.97046877 12.60599407 9.97046877 12.60599407 7.2734375 10.921875 C5.83082536 9.63462109 4.41451294 8.31806887 3 7 C0.78264561 6.14720662 0.78264561 6.14720662 -1 6 C-0.67 4.02 -0.34 2.04 0 0 Z " fill="#E3E3E3" transform="translate(247,204)"/>
<path d="M0 0 C1.16144531 0.00902344 2.32289063 0.01804687 3.51953125 0.02734375 C4.39996094 0.03894531 5.28039062 0.05054688 6.1875 0.0625 C6.1875 1.7125 6.1875 3.3625 6.1875 5.0625 C-0.7425 5.0625 -7.6725 5.0625 -14.8125 5.0625 C-11.8125 1.0625 -11.8125 1.0625 -9.55078125 0.31640625 C-6.35011762 0.01962574 -3.21439992 -0.03246869 0 0 Z " fill="#171717" transform="translate(303.8125,441.9375)"/>
<path d="M0 0 C1.625 2 1.625 2 3 4 C1.48710344 7.02579312 -0.93436356 7.60913908 -3.9375 9.0625 C-5.55978516 9.85333984 -5.55978516 9.85333984 -7.21484375 10.66015625 C-8.13394531 11.10230469 -9.05304688 11.54445312 -10 12 C-10.99 12.495 -10.99 12.495 -12 13 C-11.67 11.02 -11.34 9.04 -11 7 C-11.66 7 -12.32 7 -13 7 C-13 6.34 -13 5.68 -13 5 C-4.61290323 0 -4.61290323 0 0 0 Z " fill="#202020" transform="translate(217,185)"/>
<path d="M0 0 C3.375 -0.125 3.375 -0.125 7 0 C9 2 9 2 9 5 C9.3062434 6.33981486 9.63451555 7.67511887 10 9 C6.98131566 10.50934217 4.32702771 10.17510672 1 10 C0.01 9.34 -0.98 8.68 -2 8 C-0.25 3.125 -0.25 3.125 2 2 C1.34 1.34 0.68 0.68 0 0 Z M-5 7 C-4.01 7.99 -3.02 8.98 -2 10 C-3.65 9.67 -5.3 9.34 -7 9 C-6.34 8.34 -5.68 7.68 -5 7 Z " fill="#2F2F2F" transform="translate(285,205)"/>
<path d="M0 0 C2.375 2 2.375 2 4 4 C3.01 4.495 3.01 4.495 2 5 C1.34 4.67 0.68 4.34 0 4 C-0.33 5.98 -0.66 7.96 -1 10 C-3.9375 9.625 -3.9375 9.625 -7 9 C-7.33 8.34 -7.66 7.68 -8 7 C-10.01669827 5.86649466 -10.01669827 5.86649466 -12 5 C-5.59963931 -1.09558161 -5.59963931 -1.09558161 0 0 Z " fill="#1A1A1A" transform="translate(322,104)"/>
<path d="M0 0 C0.33 0.99 0.66 1.98 1 3 C1.66 2.67 2.32 2.34 3 2 C3.66 1.67 4.32 1.34 5 1 C5.33 1.99 5.66 2.98 6 4 C-1.51479821 12.74170404 -1.51479821 12.74170404 -5.15625 13.375 C-7.0625 13.0625 -7.0625 13.0625 -10 12 C-3.84965831 3.55353075 -3.84965831 3.55353075 0 0 Z " fill="#282828" transform="translate(237,169)"/>
<path d="M0 0 C3.3 0.33 6.6 0.66 10 1 C9.01 1.495 9.01 1.495 8 2 C8.33 2.99 8.66 3.98 9 5 C8.5625 7.6875 8.5625 7.6875 8 10 C5.36 10.33 2.72 10.66 0 11 C0 7.37 0 3.74 0 0 Z " fill="#161616" transform="translate(208,385)"/>
<path d="M0 0 C4.59306496 1.4859916 7.43569245 3.85014682 11 7 C9.82744291 10.33727786 8.81131596 12.77437487 6 15 C5.34 15 4.68 15 4 15 C3.67 14.01 3.34 13.02 3 12 C3.33 11.67 3.66 11.34 4 11 C2.35 9.35 0.7 7.7 -1 6 C-0.01 5.67 0.98 5.34 2 5 C1.34 3.35 0.68 1.7 0 0 Z " fill="#272727" transform="translate(296,135)"/>
<path d="M0 0 C11.42413487 1.88553682 11.42413487 1.88553682 15 5 C15.8125 7.6875 15.8125 7.6875 16 10 C9.15550444 9.85437243 4.83393195 6.74624157 0 2 C0 1.34 0 0.68 0 0 Z " fill="#E6E6E6" transform="translate(263,94)"/>
<path d="M0 0 C0.66 0.66 1.32 1.32 2 2 C-0.48463843 6.55517045 -2.81201332 9.14300611 -7.5625 11.3203125 C-12.29463756 12.63985086 -17.13700325 12.29177981 -22 12 C-22 11.67 -22 11.34 -22 11 C-17.71 10.34 -13.42 9.68 -9 9 C-9 8.34 -9 7.68 -9 7 C-9.66 6.67 -10.32 6.34 -11 6 C-10.01 6 -9.02 6 -8 6 C-7.67 5.01 -7.34 4.02 -7 3 C-6.01 2.67 -5.02 2.34 -4 2 C-3.67 2.66 -3.34 3.32 -3 4 C-2.01 2.68 -1.02 1.36 0 0 Z " fill="#222222" transform="translate(406,385)"/>
<path d="M0 0 C0.74886475 0.00523682 1.49772949 0.01047363 2.26928711 0.01586914 C3.07817383 0.0190918 3.88706055 0.02231445 4.72045898 0.02563477 C5.5705957 0.03401367 6.42073242 0.04239258 7.29663086 0.05102539 C8.15063477 0.05553711 9.00463867 0.06004883 9.88452148 0.06469727 C12.00108749 0.07652166 14.11761771 0.0944577 16.23413086 0.11352539 C16.23413086 0.44352539 16.23413086 0.77352539 16.23413086 1.11352539 C11.61413086 1.11352539 6.99413086 1.11352539 2.23413086 1.11352539 C2.23413086 1.77352539 2.23413086 2.43352539 2.23413086 3.11352539 C3.22413086 3.44352539 4.21413086 3.77352539 5.23413086 4.11352539 C4.24413086 5.43352539 3.25413086 6.75352539 2.23413086 8.11352539 C1.90413086 7.12352539 1.57413086 6.13352539 1.23413086 5.11352539 C0.24413086 5.11352539 -0.74586914 5.11352539 -1.76586914 5.11352539 C-1.76586914 14.02352539 -1.76586914 22.93352539 -1.76586914 32.11352539 C-2.09586914 32.11352539 -2.42586914 32.11352539 -2.76586914 32.11352539 C-2.79052418 27.71696366 -2.80870756 23.32043819 -2.82080078 18.92382812 C-2.82584035 17.42707621 -2.83267201 15.93032923 -2.84130859 14.43359375 C-2.85339073 12.28652732 -2.85910105 10.13952577 -2.86352539 7.99243164 C-2.86876221 6.69893799 -2.87399902 5.40544434 -2.87939453 4.07275391 C-2.72988353 0.1755006 -2.72988353 0.1755006 0 0 Z " fill="#656565" transform="translate(247.765869140625,415.886474609375)"/>
<path d="M0 0 C1.32 0 2.64 0 4 0 C4 0.99 4 1.98 4 3 C4.66 3 5.32 3 6 3 C5.375 5.4375 5.375 5.4375 4 8 C1.3125 8.625 1.3125 8.625 -2 9 C-4.40187667 9.88084856 -6.67275373 10.92946672 -9 12 C-8.42655063 9.13275314 -8.1385485 8.1385485 -6 6 C-5.154375 5.71125 -4.30875 5.4225 -3.4375 5.125 C-0.81552157 4.2590293 -0.81552157 4.2590293 -0.1875 1.875 C-0.125625 1.25625 -0.06375 0.6375 0 0 Z " fill="#232323" transform="translate(319,125)"/>
<path d="M0 0 C1.43793392 0.31049726 2.8753318 0.6234776 4.3125 0.9375 C5.11300781 1.11152344 5.91351563 1.28554688 6.73828125 1.46484375 C9 2 9 2 12 3 C12.12375 3.94875 12.2475 4.8975 12.375 5.875 C12.71687177 9.08667191 12.71687177 9.08667191 15 11 C10.50550624 11 9.7571694 10.4421616 6.375 7.75 C5.59898437 7.14671875 4.82296875 6.5434375 4.0234375 5.921875 C2.03044861 4.02892031 1.03703799 2.52011383 0 0 Z " fill="#212121" transform="translate(140,269)"/>
<path d="M0 0 C0.99 0.33 1.98 0.66 3 1 C3 1.33 3 1.66 3 2 C7.455 2.99 7.455 2.99 12 4 C11.34 5.32 10.68 6.64 10 8 C4.25 7.125 4.25 7.125 2 6 C0.00045254 5.95745644 -2.00041636 5.95919217 -4 6 C-4.99 6 -5.98 6 -7 6 C-5.90716423 4.96704564 -4.80029421 3.94892165 -3.6875 2.9375 C-3.07261719 2.36902344 -2.45773438 1.80054688 -1.82421875 1.21484375 C-0.92123047 0.61349609 -0.92123047 0.61349609 0 0 Z " fill="#2A2A2A" transform="translate(255,184)"/>
<path d="M0 0 C2.49918259 1.15424096 4.6705424 2.50914713 7 4 C6.67 4.99 6.34 5.98 6 7 C5.401875 6.835 4.80375 6.67 4.1875 6.5 C1.88655664 5.8885876 1.88655664 5.8885876 -1 6 C-1 5.67 -1 5.34 -1 5 C-3.97 5 -6.94 5 -10 5 C-8.24381296 -0.26856111 -5.05652057 -0.58344468 0 0 Z " fill="#161616" transform="translate(257,189)"/>
<path d="M0 0 C3.28291686 2.11801087 4.12984461 3.27076261 5 7 C5.99 7.33 6.98 7.66 8 8 C7.67 8.66 7.34 9.32 7 10 C6.37351562 9.91621094 5.74703125 9.83242188 5.1015625 9.74609375 C4.28429687 9.64425781 3.46703125 9.54242188 2.625 9.4375 C1.40683594 9.28087891 1.40683594 9.28087891 0.1640625 9.12109375 C-2.04899186 8.81762672 -2.04899186 8.81762672 -4 10 C-4 7.36 -4 4.72 -4 2 C-3.01 2.495 -3.01 2.495 -2 3 C-1.67 2.34 -1.34 1.68 -1 1 C-0.67 0.67 -0.34 0.34 0 0 Z " fill="#121413" transform="translate(285,356)"/>
<path d="M0 0 C2.31 0 4.62 0 7 0 C7 6.93 7 13.86 7 21 C6.67 21 6.34 21 6 21 C5.67 15.39 5.34 9.78 5 4 C4.67 4.66 4.34 5.32 4 6 C3.01 6 2.02 6 1 6 C0.67 6.66 0.34 7.32 0 8 C0 5.36 0 2.72 0 0 Z " fill="#121212" transform="translate(202,417)"/>
<path d="M0 0 C3.61730402 1.76227632 5.80075931 3.64326421 8 7 C6.33333333 7 4.66666667 7 3 7 C2.34 7.66 1.68 8.32 1 9 C-1.31 7.35 -3.62 5.7 -6 4 C-4.03617993 2.49440461 -2.21736634 1.10868317 0 0 Z " fill="#272727" transform="translate(260,204)"/>
<path d="M0 0 C0.90105469 0.00902344 1.80210937 0.01804688 2.73046875 0.02734375 C3.41753906 0.03894531 4.10460937 0.05054688 4.8125 0.0625 C4.8125 1.0525 4.8125 2.0425 4.8125 3.0625 C2.8125 5.0625 2.8125 5.0625 0.2109375 5.2578125 C-0.78679687 5.23460937 -1.78453125 5.21140625 -2.8125 5.1875 C-4.31683594 5.16042969 -4.31683594 5.16042969 -5.8515625 5.1328125 C-6.62242187 5.10960937 -7.39328125 5.08640625 -8.1875 5.0625 C-8.5175 4.4025 -8.8475 3.7425 -9.1875 3.0625 C-7.31499103 -0.68251794 -3.72136574 -0.04832943 0 0 Z " fill="#101010" transform="translate(289.1875,194.9375)"/>
<path d="M0 0 C0.66 0.66 1.32 1.32 2 2 C1.34 2 0.68 2 0 2 C-0.103125 3.258125 -0.20625 4.51625 -0.3125 5.8125 C-0.64858808 8.60499657 -0.80025876 9.74433121 -2.5625 12 C-3.2740625 12.495 -3.2740625 12.495 -4 13 C-4 12.34 -4 11.68 -4 11 C-4.99 11 -5.98 11 -7 11 C-6.85969405 7.98342209 -6.70648535 5.76158727 -4.59765625 3.48828125 C-3.11095765 2.26743934 -1.55865102 1.12753478 0 0 Z " fill="#1D1D1D" transform="translate(242,182)"/>
<path d="M0 0 C2.25 1.5625 2.25 1.5625 4 3 C3.34 3 2.68 3 2 3 C2.33 4.65 2.66 6.3 3 8 C-5.6309795 4.14578588 -5.6309795 4.14578588 -8 0 C-4.94073669 -0.98333463 -3.02541902 -1.13453213 0 0 Z " fill="#E9E9E9" transform="translate(178,209)"/>
<path d="M0 0 C0 0.33 0 0.66 0 1 C-0.93972656 1.09087891 -0.93972656 1.09087891 -1.8984375 1.18359375 C-2.71570313 1.26738281 -3.53296875 1.35117188 -4.375 1.4375 C-5.18710937 1.51871094 -5.99921875 1.59992188 -6.8359375 1.68359375 C-9.04272805 1.89090114 -9.04272805 1.89090114 -11 3 C-11.66 2.67 -12.32 2.34 -13 2 C-13 2.99 -13 3.98 -13 5 C-12.34 5.66 -11.68 6.32 -11 7 C-13.31 7.66 -15.62 8.32 -18 9 C-19 6 -19 6 -19 3 C-12.68284595 -0.44572039 -7.09629025 -0.31461385 0 0 Z " fill="#353535" transform="translate(294,194)"/>
<path d="M0 0 C0 0.33 0 0.66 0 1 C-1.04800781 1.05607422 -1.04800781 1.05607422 -2.1171875 1.11328125 C-3.48230469 1.21189453 -3.48230469 1.21189453 -4.875 1.3125 C-6.23238281 1.39951172 -6.23238281 1.39951172 -7.6171875 1.48828125 C-10.36221601 1.7882039 -10.36221601 1.7882039 -12 5 C-12.66 5 -13.32 5 -14 5 C-14.33 5.99 -14.66 6.98 -15 8 C-17.97 7.505 -17.97 7.505 -21 7 C-20.5 5.1875 -20.5 5.1875 -19 3 C-12.64141701 -0.2370968 -7.04416267 -0.34961837 0 0 Z " fill="#303030" transform="translate(267,172)"/>
<path d="M0 0 C-0.66 2.97 -1.32 5.94 -2 9 C-3.98 9 -5.96 9 -8 9 C-8 7.68 -8 6.36 -8 5 C-2.77272727 0 -2.77272727 0 0 0 Z " fill="#E9E9E9" transform="translate(217,204)"/>
<path d="M0 0 C1.98 0 3.96 0 6 0 C6.66 1.32 7.32 2.64 8 4 C7.01 4 6.02 4 5 4 C5.66 4.66 6.32 5.32 7 6 C6 7 6 7 3.71484375 7.09765625 C2.34005859 7.08025391 2.34005859 7.08025391 0.9375 7.0625 C0.01839844 7.05347656 -0.90070313 7.04445312 -1.84765625 7.03515625 C-2.55792969 7.02355469 -3.26820313 7.01195312 -4 7 C-3.34 6.01 -2.68 5.02 -2 4 C-1.34 4 -0.68 4 0 4 C0 2.68 0 1.36 0 0 Z " fill="#131313" transform="translate(280,214)"/>
<path d="M0 0 C-0.33 0.99 -0.66 1.98 -1 3 C-1.99 3 -2.98 3 -4 3 C-4.33 4.32 -4.66 5.64 -5 7 C-6.65 6.67 -8.3 6.34 -10 6 C-11.125 2.25 -11.125 2.25 -10 0 C-6.35526801 -0.89093449 -3.57257469 -1.23666047 0 0 Z " fill="#151515" transform="translate(288,207)"/>
<path d="M0 0 C3.63 0 7.26 0 11 0 C11 1.98 11 3.96 11 6 C8.36 5.67 5.72 5.34 3 5 C2.67 4.01 2.34 3.02 2 2 C1.34 1.34 0.68 0.68 0 0 Z " fill="#202020" transform="translate(331,429)"/>
<path d="M0 0 C3.3 0 6.6 0 10 0 C10.33 1.32 10.66 2.64 11 4 C7.18243176 5.37432457 3.92744671 4.67975039 0 4 C0 2.68 0 1.36 0 0 Z " fill="#1C1C1C" transform="translate(257,183)"/>
<path d="M0 0 C4.35535069 1.16142685 6.64619703 2.07699505 9 6 C5.04632793 7.09824224 3.55172015 6.88032243 0 5 C-2.32495277 4.61250787 -4.65851268 4.27017161 -7 4 C-7 3.67 -7 3.34 -7 3 C-5.5459375 2.814375 -5.5459375 2.814375 -4.0625 2.625 C-2.5465625 2.315625 -2.5465625 2.315625 -1 2 C-0.67 1.34 -0.34 0.68 0 0 Z " fill="#E7E7E7" transform="translate(267,179)"/>
<path d="M0 0 C3.71080883 4.42442592 6.84577733 9.17403931 10 14 C9.67 14.66 9.34 15.32 9 16 C7.125 15.875 7.125 15.875 5 15 C4.26480478 13.02416285 3.60927518 11.01822402 3 9 C1.9171875 7.4221875 1.9171875 7.4221875 0.8125 5.8125 C0.214375 4.884375 -0.38375 3.95625 -1 3 C-0.67 2.01 -0.34 1.02 0 0 Z " fill="#313231" transform="translate(284,349)"/>
<path d="M0 0 C3.25543229 0.34879632 4.01873107 1.02133261 6.25 3.5625 C7.11625 4.7690625 7.11625 4.7690625 8 6 C5 8 5 8 2.9375 7.9375 C1 7 1 7 -0.3125 4.5625 C-1 2 -1 2 0 0 Z " fill="#EFEFEF" transform="translate(299,205)"/>
<path d="M0 0 C1.31223496 3.93670488 0.24296256 6.12488144 -1 10 C-1.99 9.67 -2.98 9.34 -4 9 C-4 8.34 -4 7.68 -4 7 C-4.99 7 -5.98 7 -7 7 C-6.67 5.02 -6.34 3.04 -6 1 C-3.03 1.495 -3.03 1.495 0 2 C0 1.34 0 0.68 0 0 Z " fill="#262626" transform="translate(222,205)"/>
<path d="M0 0 C1.875 0.3125 1.875 0.3125 4 1 C4.66 1.99 5.32 2.98 6 4 C5.34 4.66 4.68 5.32 4 6 C3.83318891 9.08347826 3.83318891 9.08347826 4 12 C3.01 12.495 3.01 12.495 2 13 C0.21590198 9.93753253 -0.22880021 7.77920727 -0.125 4.25 C-0.10695312 3.45078125 -0.08890625 2.6515625 -0.0703125 1.828125 C-0.04710937 1.22484375 -0.02390625 0.6215625 0 0 Z " fill="#242424" transform="translate(189,39)"/>
<path d="M0 0 C5.28 1.32 10.56 2.64 16 4 C16 4.33 16 4.66 16 5 C14.41676312 5.027193 12.83338938 5.04648306 11.25 5.0625 C9.92742187 5.07990234 9.92742187 5.07990234 8.578125 5.09765625 C6.2181162 5.00826198 4.25501476 4.66912821 2 4 C2 6.31 2 8.62 2 11 C1.67 11 1.34 11 1 11 C0.67 7.37 0.34 3.74 0 0 Z " fill="#C3C3C3" transform="translate(222,279)"/>
<path d="M0 0 C2.31 1.98 4.62 3.96 7 6 C4.74319164 10.51361671 3.63212539 11.33243486 -1 13 C-3.375 12.1875 -3.375 12.1875 -5 11 C-2.36 10.01 0.28 9.02 3 8 C1.86695008 4.60085025 0.87481525 3.94745549 -2 2 C-1.34 2 -0.68 2 0 2 C0 1.34 0 0.68 0 0 Z " fill="#2D2D2D" transform="translate(236,59)"/>
<path d="M0 0 C2.430466 2.430466 2.76271993 3.5989856 3 7 C1.37844371 10.48634601 0.23546708 11.84302194 -3 14 C-2.48594831 9.03083364 -1.76615118 4.70973649 0 0 Z " fill="#2E2E2E" transform="translate(338,344)"/>
<path d="M0 0 C1.51400391 0.01740234 1.51400391 0.01740234 3.05859375 0.03515625 C4.07050781 0.04417969 5.08242187 0.05320313 6.125 0.0625 C7.29869141 0.07990234 7.29869141 0.07990234 8.49609375 0.09765625 C7.83609375 0.75765625 7.17609375 1.41765625 6.49609375 2.09765625 C5.50609375 2.09765625 4.51609375 2.09765625 3.49609375 2.09765625 C2.83609375 3.41765625 2.17609375 4.73765625 1.49609375 6.09765625 C0.50609375 5.76765625 -0.48390625 5.43765625 -1.50390625 5.09765625 C-3.67106182 5.9724954 -3.67106182 5.9724954 -5.50390625 7.09765625 C-3.27951797 0.12790632 -3.27951797 0.12790632 0 0 Z " fill="#262626" transform="translate(248.50390625,192.90234375)"/>
<path d="M0 0 C1.08667969 0.29197266 1.08667969 0.29197266 2.1953125 0.58984375 C2.74960937 0.74582031 3.30390625 0.90179688 3.875 1.0625 C2.885 2.5475 2.885 2.5475 1.875 4.0625 C2.535 4.7225 3.195 5.3825 3.875 6.0625 C1.895 6.3925 -0.085 6.7225 -2.125 7.0625 C-1.465 6.7325 -0.805 6.4025 -0.125 6.0625 C-0.125 5.4025 -0.125 4.7425 -0.125 4.0625 C-3.095 3.5675 -3.095 3.5675 -6.125 3.0625 C-6.125 2.0725 -6.125 1.0825 -6.125 0.0625 C-3.57797384 -1.21101308 -2.6967055 -0.73941925 0 0 Z " fill="#141414" transform="translate(314.125,209.9375)"/>
<path d="M0 0 C1.03125 0.309375 2.0625 0.61875 3.125 0.9375 C6.38972557 1.87502812 9.63613462 2.50772702 13 3 C13 3.33 13 3.66 13 4 C11.35 4.33 9.7 4.66 8 5 C8 5.99 8 6.98 8 8 C7.34 8.66 6.68 9.32 6 10 C3.69 7.36 1.38 4.72 -1 2 C-0.67 1.34 -0.34 0.68 0 0 Z " fill="#242424" transform="translate(271,203)"/>
<path d="M0 0 C0 0.66 0 1.32 0 2 C1.32 1.67 2.64 1.34 4 1 C3.6875 2.9375 3.6875 2.9375 3 5 C2.01 5.33 1.02 5.66 0 6 C-0.66 6.66 -1.32 7.32 -2 8 C-3.65 6.68 -5.3 5.36 -7 4 C-3.375 0 -3.375 0 0 0 Z " fill="#141414" transform="translate(184,202)"/>
<path d="M0 0 C0.66 0 1.32 0 2 0 C3.71050559 4.97601626 2.00885647 8.42616295 0 13 C-0.66 13 -1.32 13 -2 13 C-2.05447047 11.58376784 -2.09300508 10.16691809 -2.125 8.75 C-2.14820313 7.96109375 -2.17140625 7.1721875 -2.1953125 6.359375 C-1.9828378 3.79268059 -1.28654105 2.2083933 0 0 Z " fill="#202020" transform="translate(140,179)"/>
<path d="M0 0 C0.33 0.99 0.66 1.98 1 3 C1.99 3 2.98 3 4 3 C4 3.99 4 4.98 4 6 C-2.75 10 -2.75 10 -5 10 C-3.66511872 6.40608886 -2.03977277 3.24509304 0 0 Z " fill="#2E2E2E" transform="translate(146,123)"/>
<path d="M0 0 C0.89203125 0.01804687 1.7840625 0.03609375 2.703125 0.0546875 C3.71632812 0.08949219 3.71632812 0.08949219 4.75 0.125 C2.275 3.59 2.275 3.59 -0.25 7.125 C-0.91 5.805 -1.57 4.485 -2.25 3.125 C-3.24 3.62 -3.24 3.62 -4.25 4.125 C-4.25 3.465 -4.25 2.805 -4.25 2.125 C-5.9 2.125 -7.55 2.125 -9.25 2.125 C-6.03817851 0.21891902 -3.71117397 -0.09766247 0 0 Z " fill="#D6D6D6" transform="translate(228.25,123.875)"/>
<path d="M0 0 C-1.25 2 -1.25 2 -3 4 C-4.32 4 -5.64 4 -7 4 C-7.99 4.66 -8.98 5.32 -10 6 C-10.33 4.02 -10.66 2.04 -11 0 C-6.94952424 -1.35015859 -4.2079832 -0.62084998 0 0 Z " fill="#141414" transform="translate(167,370)"/>
<path d="M0 0 C3.465 1.485 3.465 1.485 7 3 C6.34 4.65 5.68 6.3 5 8 C1.63279613 6.60667426 0.0140476 5.0210714 -2 2 C-1.34 1.34 -0.68 0.68 0 0 Z " fill="#1A1A1A" transform="translate(302,201)"/>
<path d="M0 0 C1.98 1.65 3.96 3.3 6 5 C5.34 5.66 4.68 6.32 4 7 C3.34 6.34 2.68 5.68 2 5 C1.01 5.99 0.02 6.98 -1 8 C-1.99 6.68 -2.98 5.36 -4 4 C-3.34 4 -2.68 4 -2 4 C-1.34 2.68 -0.68 1.36 0 0 Z " fill="#272727" transform="translate(313,192)"/>
<path d="M0 0 C0 0.99 0 1.98 0 3 C-5.38490641 3.91657981 -10.54230189 4.11138159 -16 4 C-13.03476487 2.02317658 -10.84158175 1.24171007 -7.4375 0.3125 C-6.46683594 0.04050781 -5.49617188 -0.23148437 -4.49609375 -0.51171875 C-2 -1 -2 -1 0 0 Z " fill="#C8C8C8" transform="translate(291,280)"/>
<path d="M0 0 C0.66 0.33 1.32 0.66 2 1 C1.8125 4.3125 1.8125 4.3125 1 8 C-1.5625 9.9375 -1.5625 9.9375 -4 11 C-3.67 9.02 -3.34 7.04 -3 5 C-3.66 5 -4.32 5 -5 5 C-5 4.34 -5 3.68 -5 3 C-2.625 1.3125 -2.625 1.3125 0 0 Z " fill="#2B2B2B" transform="translate(209,187)"/>
<path d="M0 0 C0.99 0.33 1.98 0.66 3 1 C2.67 2.98 2.34 4.96 2 7 C-0.97 6.505 -0.97 6.505 -4 6 C-4.33 5.01 -4.66 4.02 -5 3 C-4.01 3 -3.02 3 -2 3 C-2 2.34 -2 1.68 -2 1 C-1.34 0.67 -0.68 0.34 0 0 Z " fill="#454545" transform="translate(319,107)"/>
<path d="M0 0 C2.31 0 4.62 0 7 0 C5.63055898 2.94956528 4.12169591 5.52468811 2 8 C1.34 8 0.68 8 0 8 C0 5.36 0 2.72 0 0 Z " fill="#373737" transform="translate(225,136)"/>
<path d="M0 0 C6.52307692 -0.36923077 6.52307692 -0.36923077 8.9375 1.5 C9.288125 1.995 9.63875 2.49 10 3 C7.04335481 4.4783226 4.25770263 4.06032783 1 4 C0.67 2.68 0.34 1.36 0 0 Z " fill="#D9D9D9" transform="translate(285,211)"/>
<path d="M0 0 C2 2 2 2 2 7 C-2.29 7 -6.58 7 -11 7 C-11 6.67 -11 6.34 -11 6 C-10.113125 5.938125 -9.22625 5.87625 -8.3125 5.8125 C-4.25918008 4.81828945 -2.70168251 3.09898876 0 0 Z " fill="#4A4A4A" transform="translate(373,390)"/>
<path d="M0 0 C0.66 0.33 1.32 0.66 2 1 C2.625 3.0625 2.625 3.0625 3 5 C3.99 5 4.98 5 6 5 C6 5.66 6 6.32 6 7 C0.06 6.01 0.06 6.01 -6 5 C-4.68 4.34 -3.36 3.68 -2 3 C-1.34 2.01 -0.68 1.02 0 0 Z " fill="#2D2D2D" transform="translate(195,210)"/>
<path d="M0 0 C0.33 0.66 0.66 1.32 1 2 C1.66 2 2.32 2 3 2 C3 5.96 3 9.92 3 14 C2.67 14 2.34 14 2 14 C1.67 11.03 1.34 8.06 1 5 C0.01 5.99 -0.98 6.98 -2 8 C-2.6875 6.25 -2.6875 6.25 -3 4 C-1.5625 1.75 -1.5625 1.75 0 0 Z " fill="#474747" transform="translate(148,168)"/>
<path d="M0 0 C5.41538462 -0.36923077 5.41538462 -0.36923077 8.375 1.5 C8.91125 1.995 9.4475 2.49 10 3 C9.01 4.485 9.01 4.485 8 6 C6.68 5.67 5.36 5.34 4 5 C4 4.34 4 3.68 4 3 C3.34 3 2.68 3 2 3 C2 2.34 2 1.68 2 1 C1.34 0.67 0.68 0.34 0 0 Z " fill="#E8E8E8" transform="translate(263,168)"/>
<path d="M0 0 C0.66 1.32 1.32 2.64 2 4 C-0.64 6.64 -3.28 9.28 -6 12 C-6 8.36804504 -5.04546845 7.25286089 -3 4.3125 C-2.443125 3.50425781 -1.88625 2.69601563 -1.3125 1.86328125 C-0.879375 1.24839844 -0.44625 0.63351563 0 0 Z " fill="#2A2A2A" transform="translate(157,127)"/>
<path d="M0 0 C-2.475 3.465 -2.475 3.465 -5 7 C-6.65 5.35 -8.3 3.7 -10 2 C-8.71211992 1.46987262 -7.41953322 0.9511671 -6.125 0.4375 C-5.40570313 0.14746094 -4.68640625 -0.14257812 -3.9453125 -0.44140625 C-2 -1 -2 -1 0 0 Z " fill="#E2E2E2" transform="translate(158,127)"/>
<path d="M0 0 C4.455 0.99 4.455 0.99 9 2 C7.515 4.475 7.515 4.475 6 7 C1.125 3.375 1.125 3.375 0 0 Z " fill="#363636" transform="translate(140,269)"/>
<path d="M0 0 C3 1 3 1 4.1875 3.0625 C4.455625 3.701875 4.72375 4.34125 5 5 C3.35 5 1.7 5 0 5 C-0.33 6.32 -0.66 7.64 -1 9 C-1.99 8.34 -2.98 7.68 -4 7 C-3.34 6.67 -2.68 6.34 -2 6 C-1.27306096 4.02111039 -0.60183749 2.02045442 0 0 Z M-3 9 C-1 10 -1 10 -1 10 Z " fill="#2D2D2D" transform="translate(308,205)"/>
<path d="M0 0 C0.33 0.99 0.66 1.98 1 3 C-0.65 3.33 -2.3 3.66 -4 4 C-4 5.32 -4 6.64 -4 8 C-4.66 8 -5.32 8 -6 8 C-6.33 6.35 -6.66 4.7 -7 3 C-3.375 0 -3.375 0 0 0 Z " fill="#161616" transform="translate(211,203)"/>
<path d="M0 0 C1.91015625 0.1328125 1.91015625 0.1328125 3.91015625 1.1328125 C3.91015625 1.7928125 3.91015625 2.4528125 3.91015625 3.1328125 C4.57015625 3.4628125 5.23015625 3.7928125 5.91015625 4.1328125 C4.49265062 4.01771589 3.07614456 3.89027592 1.66015625 3.7578125 C0.87125 3.68820313 0.08234375 3.61859375 -0.73046875 3.546875 C-3.17572075 3.11774137 -4.93821278 2.34680612 -7.08984375 1.1328125 C-5.19099279 -0.76603846 -2.51736472 0.00913744 0 0 Z " fill="#FBFBFB" transform="translate(261.08984375,167.8671875)"/>
<path d="M0 0 C2.64 0 5.28 0 8 0 C8 0.99 8 1.98 8 3 C7.01 3 6.02 3 5 3 C5 3.66 5 4.32 5 5 C2.69 4.67 0.38 4.34 -2 4 C-1.34 2.68 -0.68 1.36 0 0 Z " fill="#141414" transform="translate(256,162)"/>
<path d="M0 0 C2.96909598 3.27301919 3.34354794 5.38065762 3.1875 9.75 C3.14689453 11.22726562 3.14689453 11.22726562 3.10546875 12.734375 C3.07066406 13.48203125 3.03585937 14.2296875 3 15 C2.67 15 2.34 15 2 15 C2 12.03 2 9.06 2 6 C0.7934375 5.566875 0.7934375 5.566875 -0.4375 5.125 C-3 4 -3 4 -4 2 C-2.68 2 -1.36 2 0 2 C0 1.34 0 0.68 0 0 Z " fill="#3A3A3A" transform="translate(273,423)"/>
<path d="M0 0 C2.86724686 0.57344937 3.8614515 0.8614515 6 3 C5.34 3 4.68 3 4 3 C3.67 3.99 3.34 4.98 3 6 C1.02 5.34 -0.96 4.68 -3 4 C-2.34 3.67 -1.68 3.34 -1 3 C-0.67 2.01 -0.34 1.02 0 0 Z " fill="#E2E2E2" transform="translate(295,202)"/>
<path d="M0 0 C0.66 0.33 1.32 0.66 2 1 C2.625 3.0625 2.625 3.0625 3 5 C1.35 5.66 -0.3 6.32 -2 7 C-2.66 5.68 -3.32 4.36 -4 3 C-2.68 2.01 -1.36 1.02 0 0 Z " fill="#DFDFDF" transform="translate(273,192)"/>
<path d="M0 0 C2.97 0 5.94 0 9 0 C8.34 1.32 7.68 2.64 7 4 C4.03 3.505 4.03 3.505 1 3 C0.67 2.01 0.34 1.02 0 0 Z " fill="#D7D7D7" transform="translate(258,188)"/>
<path d="M0 0 C2.31 0.33 4.62 0.66 7 1 C7.33 2.65 7.66 4.3 8 6 C7.01 6 6.02 6 5 6 C5 5.34 5 4.68 5 4 C4.01 4 3.02 4 2 4 C1.34 2.68 0.68 1.36 0 0 Z " fill="#161616" transform="translate(196,211)"/>
<path d="M0 0 C0.99 0.66 1.98 1.32 3 2 C4.32567199 2.68177416 5.65753688 3.35191436 7 4 C6.67 5.65 6.34 7.3 6 9 C5.01 8.67 4.02 8.34 3 8 C3 7.34 3 6.68 3 6 C1.37373596 4.61767557 -0.2925002 3.28062485 -2 2 C-1.34 2 -0.68 2 0 2 C0 1.34 0 0.68 0 0 Z " fill="#313131" transform="translate(271,177)"/>
<path d="M0 0 C0.33 0.66 0.66 1.32 1 2 C0.04060332 3.69036558 -0.96642853 5.35394174 -2 7 C-2.69822617 8.65369357 -3.37498605 10.31727014 -4 12 C-5.32 11.01 -6.64 10.02 -8 9 C-5.36 6.03 -2.72 3.06 0 0 Z " fill="#2C2C2C" transform="translate(155,112)"/>
<path d="M0 0 C0.66 0 1.32 0 2 0 C2 1.98 2 3.96 2 6 C0.02 6.99 0.02 6.99 -2 8 C-2.6875 6.25 -2.6875 6.25 -3 4 C-1.6875 1.75 -1.6875 1.75 0 0 Z " fill="#F4F4F4" transform="translate(220,377)"/>
<path d="M0 0 C0.66 0 1.32 0 2 0 C2 3.3 2 6.6 2 10 C1.01 8.68 0.02 7.36 -1 6 C-2.98 6.99 -2.98 6.99 -5 8 C-4.21718695 6.66144944 -3.42348123 5.32926356 -2.625 4 C-2.18414062 3.2575 -1.74328125 2.515 -1.2890625 1.75 C-0.86367188 1.1725 -0.43828125 0.595 0 0 Z " fill="#BEBEBE" transform="translate(330,246)"/>
<path d="M0 0 C0.66 0.66 1.32 1.32 2 2 C2.99 2 3.98 2 5 2 C4.34 3.32 3.68 4.64 3 6 C1.35 6 -0.3 6 -2 6 C-2 3 -2 3 0 0 Z " fill="#F5F5F5" transform="translate(336,209)"/>
<path d="M0 0 C0 1.65 0 3.3 0 5 C-1.65 5 -3.3 5 -5 5 C-5.33 3.35 -5.66 1.7 -6 0 C-3 -1 -3 -1 0 0 Z " fill="#1F1F1F" transform="translate(297,196)"/>
<path d="M0 0 C-0.66 2.31 -1.32 4.62 -2 7 C-3.32 6.67 -4.64 6.34 -6 6 C-6 4.68 -6 3.36 -6 2 C-3 0 -3 0 0 0 Z " fill="#D6D6D6" transform="translate(222,190)"/>
<path d="M0 0 C0.99 0.66 1.98 1.32 3 2 C2 5 2 5 -0.0625 6.1875 C-0.701875 6.455625 -1.34125 6.72375 -2 7 C-2.66 5.35 -3.32 3.7 -4 2 C-2.68 1.34 -1.36 0.68 0 0 Z " fill="#F1F1F1" transform="translate(244,173)"/>
<path d="M0 0 C0.66 0 1.32 0 2 0 C2.66 3.3 3.32 6.6 4 10 C1 9 1 9 -1 6 C-0.625 2.8125 -0.625 2.8125 0 0 Z " fill="#3E3E3E" transform="translate(140,220)"/>
<path d="M0 0 C2.97 0 5.94 0 9 0 C8.67 0.99 8.34 1.98 8 3 C5.36 3.33 2.72 3.66 0 4 C-0.33 3.34 -0.66 2.68 -1 2 C-0.67 1.34 -0.34 0.68 0 0 Z " fill="#161616" transform="translate(281,196)"/>
<path d="M0 0 C4.875 3.625 4.875 3.625 6 7 C3.69 7 1.38 7 -1 7 C-0.67 4.69 -0.34 2.38 0 0 Z " fill="#3A3A3A" transform="translate(283,170)"/>
<path d="M0 0 C2.31 0.33 4.62 0.66 7 1 C6.01 1.495 6.01 1.495 5 2 C5 2.66 5 3.32 5 4 C4.01 4 3.02 4 2 4 C0.66018514 4.3062434 -0.67511887 4.63451555 -2 5 C-1.34 3.35 -0.68 1.7 0 0 Z " fill="#161616" transform="translate(239,168)"/>
<path d="M0 0 C0.66 0.66 1.32 1.32 2 2 C1.64059802 5.4742191 -0.03306709 8.16761661 -2 11 C-2.66 11 -3.32 11 -4 11 C-3.5247412 9.35303396 -3.04468109 7.70745272 -2.5625 6.0625 C-2.29566406 5.14597656 -2.02882812 4.22945312 -1.75390625 3.28515625 C-1 1 -1 1 0 0 Z " fill="#2B2B2B" transform="translate(234,191)"/>
<path d="M0 0 C1.98 0.495 1.98 0.495 4 1 C4.33 2.65 4.66 4.3 5 6 C3.68 6 2.36 6 1 6 C0.34 5.01 -0.32 4.02 -1 3 C-0.67 2.01 -0.34 1.02 0 0 Z " fill="#1D1D1D" transform="translate(279,169)"/>
<path d="M0 0 C3.43595166 1.52708963 6.11912454 3.59927045 9 6 C5.7 5.67 2.4 5.34 -1 5 C-0.67 3.35 -0.34 1.7 0 0 Z " fill="#DFDFDF" transform="translate(211,76)"/>
<path d="M0 0 C3.3 0.99 6.6 1.98 10 3 C10 4.32 10 5.64 10 7 C5.56541027 5.6062718 3.12621626 3.39417765 0 0 Z " fill="#303030" transform="translate(210,74)"/>
<path d="M0 0 C-1 3 -1 3 -3 4 C-2.34 4.45375 -1.68 4.9075 -1 5.375 C-0.34 5.91125 0.32 6.4475 1 7 C1 7.66 1 8.32 1 9 C-1.4375 8.25 -1.4375 8.25 -4 7 C-5 5.0625 -5 5.0625 -5 3 C-3.38441968 0.84589291 -2.74502455 0 0 0 Z " fill="#2E2E2E" transform="translate(181,202)"/>
<path d="M0 0 C1.32 0 2.64 0 4 0 C3.8125 1.875 3.8125 1.875 3 4 C0.4375 5.25 0.4375 5.25 -2 6 C-2.33 5.34 -2.66 4.68 -3 4 C-2.67 3.34 -2.34 2.68 -2 2 C-1.34 2 -0.68 2 0 2 C0 1.34 0 0.68 0 0 Z " fill="#323232" transform="translate(334,205)"/>
<path d="M0 0 C0.99 0.33 1.98 0.66 3 1 C0.9375 3.5625 0.9375 3.5625 -2 6 C-5.8125 5.8125 -5.8125 5.8125 -9 5 C-8.34 4.34 -7.68 3.68 -7 3 C-4.375 3.375 -4.375 3.375 -2 4 C-1.34 2.68 -0.68 1.36 0 0 Z " fill="#2E2E2E" transform="translate(236,176)"/>
<path d="M0 0 C2.31 0.66 4.62 1.32 7 2 C5.68 3.32 4.36 4.64 3 6 C2.34 5.01 1.68 4.02 1 3 C0.34 3 -0.32 3 -1 3 C-0.67 2.01 -0.34 1.02 0 0 Z " fill="#252525" transform="translate(244,178)"/>
<path d="M0 0 C-5.625 3 -5.625 3 -9 3 C-9 3.66 -9 4.32 -9 5 C-10.65 5 -12.3 5 -14 5 C-5.70258621 -2.11206897 -5.70258621 -2.11206897 0 0 Z " fill="#3B3B3B" transform="translate(254,163)"/>
<path d="M0 0 C3.3 1.65 6.6 3.3 10 5 C6.30581799 6.231394 3.7943739 5.64432764 0 5 C0 3.33333333 0 1.66666667 0 0 Z " fill="#2C2C2C" transform="translate(169,263)"/>
<path d="M0 0 C0.33 0.66 0.66 1.32 1 2 C3.52733235 2.65555119 3.52733235 2.65555119 6 3 C6 3.66 6 4.32 6 5 C3.69 5 1.38 5 -1 5 C-1 1 -1 1 0 0 Z " fill="#151515" transform="translate(234,216)"/>
<path d="M0 0 C0.66 0.33 1.32 0.66 2 1 C1.1875 3.4375 1.1875 3.4375 0 6 C-0.99 6.33 -1.98 6.66 -3 7 C-3.66 6.67 -4.32 6.34 -5 6 C-3.86695008 2.60085025 -2.87481525 1.94745549 0 0 Z " fill="#151515" transform="translate(234,174)"/>
<path d="M0 0 C1.65 1.32 3.3 2.64 5 4 C3.68 5.32 2.36 6.64 1 8 C0.34 7.34 -0.32 6.68 -1 6 C-0.34 5.01 0.32 4.02 1 3 C0.34 3 -0.32 3 -1 3 C-0.67 2.01 -0.34 1.02 0 0 Z " fill="#272727" transform="translate(228,386)"/>
<path d="M0 0 C2.25245881 2.68841859 3.88213958 4.64641875 5 8 C3.68 8 2.36 8 1 8 C0.814375 7.071875 0.814375 7.071875 0.625 6.125 C0.12802644 3.80879168 0.12802644 3.80879168 -2 2 C-1.34 1.34 -0.68 0.68 0 0 Z " fill="#2B2B2B" transform="translate(118,361)"/>
<path d="M0 0 C0.66 0.66 1.32 1.32 2 2 C0.35 3.98 -1.3 5.96 -3 8 C-3.66 7.34 -4.32 6.68 -5 6 C-3.63016497 2.83884224 -3.0109362 2.0072908 0 0 Z " fill="#292929" transform="translate(345,290)"/>
<path d="M0 0 C2.4375 0.125 2.4375 0.125 5 1 C6.3125 3.5625 6.3125 3.5625 7 6 C3.62496331 4.8141763 1.35277269 3.72426311 -1 1 C-0.67 0.67 -0.34 0.34 0 0 Z " fill="#2C2C2C" transform="translate(201,266)"/>
<path d="M0 0 C8.57142857 0.85714286 8.57142857 0.85714286 12 3 C11.67 3.33 11.34 3.66 11 4 C6.42928825 3.65504062 3.41674829 3.14340842 0 0 Z " fill="#4A4A4A" transform="translate(202,223)"/>
<path d="M0 0 C4.51478398 0.53115106 7.34666857 2.36620292 11 5 C7.35839192 6.21386936 6.66834531 5.6674695 3.3125 4.0625 C2.10013672 3.49208984 2.10013672 3.49208984 0.86328125 2.91015625 C0.24839844 2.60980469 -0.36648437 2.30945313 -1 2 C-0.67 1.34 -0.34 0.68 0 0 Z " fill="#222222" transform="translate(167,210)"/>
<path d="M0 0 C0.99 0.33 1.98 0.66 3 1 C2.67 2.65 2.34 4.3 2 6 C1.01 4.68 0.02 3.36 -1 2 C-0.67 1.34 -0.34 0.68 0 0 Z M-3 1 C-2.34 1.66 -1.68 2.32 -1 3 C-1.99 4.32 -2.98 5.64 -4 7 C-3.67 5.02 -3.34 3.04 -3 1 Z " fill="#343434" transform="translate(231,207)"/>
<path d="M0 0 C0.66 0.33 1.32 0.66 2 1 C1.67 1.33 1.34 1.66 1 2 C1.99 2.99 2.98 3.98 4 5 C3.01 5.495 3.01 5.495 2 6 C1.01 5.67 0.02 5.34 -1 5 C-1.33 5.66 -1.66 6.32 -2 7 C-2.66 6.67 -3.32 6.34 -4 6 C-4 4 -4 4 -2 1.875 C-1.34 1.25625 -0.68 0.6375 0 0 Z " fill="#121212" transform="translate(247,196)"/>
<path d="M0 0 C1.32 0.66 2.64 1.32 4 2 C2.68 3.32 1.36 4.64 0 6 C-1.32 5.01 -2.64 4.02 -4 3 C-2.68 2.01 -1.36 1.02 0 0 Z " fill="#272727" transform="translate(277,167)"/>
<path d="M0 0 C3.28212246 0.43761633 4.84832931 1.52557871 7 4 C3.23375329 5.25541557 1.62811066 4.37061958 -2 3 C-1 1 -1 1 0 0 Z " fill="#262626" transform="translate(289,136)"/>
<path d="M0 0 C0.33 0.66 0.66 1.32 1 2 C2.98 1.67 4.96 1.34 7 1 C4.47043472 4.0916909 1.77545388 4.90931332 -2 6 C-1.49396008 3.83125748 -1.00016187 2.00032373 0 0 Z " fill="#333333" transform="translate(312,131)"/>
<path d="M0 0 C-3.6441774 2.4294516 -5.71241272 2.16179575 -10 2 C-10 1.34 -10 0.68 -10 0 C-6.22996568 -2.61002376 -4.07631429 -1.66758312 0 0 Z " fill="#1F1F1F" transform="translate(236,122)"/>
<path d="M0 0 C4.875 4.75 4.875 4.75 6 7 C3.625 6.8125 3.625 6.8125 1 6 C-0.3125 3.4375 -0.3125 3.4375 -1 1 C-0.67 0.67 -0.34 0.34 0 0 Z " fill="#292929" transform="translate(166,419)"/>
<path d="M0 0 C0.99 0.495 0.99 0.495 2 1 C2 1.66 2 2.32 2 3 C2.99 3.33 3.98 3.66 5 4 C4.67 4.99 4.34 5.98 4 7 C4 6.34 4 5.68 4 5 C1.66924071 5.95865509 1.66924071 5.95865509 0 9 C0 6.03 0 3.06 0 0 Z " fill="#121212" transform="translate(139,226)"/>
<path d="M0 0 C2 3.75 2 3.75 2 6 C0.1875 6.6875 0.1875 6.6875 -2 7 C-3.75 5.5625 -3.75 5.5625 -5 4 C-3.35 3.67 -1.7 3.34 0 3 C0 2.01 0 1.02 0 0 Z " fill="#131313" transform="translate(193,207)"/>
<path d="M0 0 C1.65 0 3.3 0 5 0 C4.67 1.32 4.34 2.64 4 4 C2.35 4 0.7 4 -1 4 C-0.67 2.68 -0.34 1.36 0 0 Z " fill="#F7F7F7" transform="translate(290,201)"/>
<path d="M0 0 C2.125 0.9375 2.125 0.9375 4 2 C3.34 3.32 2.68 4.64 2 6 C1.01 6 0.02 6 -1 6 C-1.33 4.35 -1.66 2.7 -2 1 C-1.34 0.67 -0.68 0.34 0 0 Z " fill="#181818" transform="translate(309,190)"/>
<path d="M0 0 C0.99 0 1.98 0 3 0 C4.6875 2 4.6875 2 6 4 C5.67 4.66 5.34 5.32 5 6 C2 6 2 6 0 5 C0 3.35 0 1.7 0 0 Z " fill="#161616" transform="translate(223,49)"/>
<path d="M0 0 C1.32 0.66 2.64 1.32 4 2 C3.34 3.32 2.68 4.64 2 6 C1.01 6 0.02 6 -1 6 C-1.042721 4.33388095 -1.04063832 2.66617115 -1 1 C-0.67 0.67 -0.34 0.34 0 0 Z " fill="#383838" transform="translate(223,44)"/>
<path d="M0 0 C0.99 0.33 1.98 0.66 3 1 C1.84826645 3.46800047 0.95216435 5.04783565 -1 7 C-1.66 5.68 -2.32 4.36 -3 3 C-2.01 2.01 -1.02 1.02 0 0 Z " fill="#F4F4F4" transform="translate(323,256)"/>
<path d="M0 0 C0.66 0.33 1.32 0.66 2 1 C2.625 3.0625 2.625 3.0625 3 5 C1.02 5.33 -0.96 5.66 -3 6 C-1.125 1.125 -1.125 1.125 0 0 Z " fill="#181818" transform="translate(230,209)"/>
<path d="M0 0 C-0.33 0.99 -0.66 1.98 -1 3 C-1.66 3 -2.32 3 -3 3 C-3 3.66 -3 4.32 -3 5 C-4.65 5 -6.3 5 -8 5 C-3.16129032 0 -3.16129032 0 0 0 Z " fill="#2A2A2A" transform="translate(178,83)"/>
<path d="M0 0 C1.70884005 1.62339805 3.37446717 3.29319053 5 5 C5 5.66 5 6.32 5 7 C3.02 6.34 1.04 5.68 -1 5 C-0.67 3.35 -0.34 1.7 0 0 Z " fill="#DBDBDB" transform="translate(227,63)"/>
<path d="M0 0 C0.99 0.33 1.98 0.66 3 1 C2.67 1.99 2.34 2.98 2 4 C3.32 4.66 4.64 5.32 6 6 C3.69 6 1.38 6 -1 6 C-1 3 -1 3 0 0 Z " fill="#282828" transform="translate(181,442)"/>
<path d="M0 0 C0.99 0 1.98 0 3 0 C4.6875 2 4.6875 2 6 4 C5.67 4.66 5.34 5.32 5 6 C3.68 5.67 2.36 5.34 1 5 C0.67 3.35 0.34 1.7 0 0 Z " fill="#292929" transform="translate(288,359)"/>
<path d="M0 0 C-0.33 0.99 -0.66 1.98 -1 3 C-4.0625 4.1875 -4.0625 4.1875 -7 5 C-6.625 3.0625 -6.625 3.0625 -6 1 C-4 0 -4 0 0 0 Z " fill="#303030" transform="translate(316,315)"/>
<path d="M0 0 C1.98 1.65 3.96 3.3 6 5 C5.01 5.66 4.02 6.32 3 7 C1.68 5.68 0.36 4.36 -1 3 C-0.67 2.01 -0.34 1.02 0 0 Z " fill="#2B2B2B" transform="translate(297,208)"/>
<path d="M0 0 C2.64 0.99 5.28 1.98 8 3 C5 5 5 5 2.3125 4.625 C1.549375 4.41875 0.78625 4.2125 0 4 C0 2.68 0 1.36 0 0 Z " fill="#222222" transform="translate(328,200)"/>
<path d="M0 0 C0.99 0.33 1.98 0.66 3 1 C3 3 3 3 1.125 5.125 C-1 7 -1 7 -3 7 C-1.125 1.125 -1.125 1.125 0 0 Z " fill="#303030" transform="translate(246,193)"/>
<path d="M0 0 C1.98 1.65 3.96 3.3 6 5 C5.34 5.66 4.68 6.32 4 7 C2.02 5.68 0.04 4.36 -2 3 C-1.34 2.67 -0.68 2.34 0 2 C0 1.34 0 0.68 0 0 Z " fill="#333333" transform="translate(236,59)"/>
<path d="M0 0 C0.99 0.33 1.98 0.66 3 1 C1.68 2.65 0.36 4.3 -1 6 C-1.99 5.67 -2.98 5.34 -4 5 C-2.68 3.35 -1.36 1.7 0 0 Z " fill="#2E2E2E" transform="translate(323,276)"/>
<path d="M0 0 C0.66 0.33 1.32 0.66 2 1 C0.1875 4 0.1875 4 -2 7 C-2.99 7 -3.98 7 -5 7 C-3.70700306 4.11562221 -2.34058637 2.12780579 0 0 Z " fill="#E1E1E1" transform="translate(213,205)"/>
<path d="M0 0 C0.99 0.66 1.98 1.32 3 2 C3 2.99 3 3.98 3 5 C2.01 5.33 1.02 5.66 0 6 C-0.66 5.67 -1.32 5.34 -2 5 C-1.125 1.125 -1.125 1.125 0 0 Z " fill="#131313" transform="translate(270,186)"/>
<path d="M0 0 C2.02045442 0.60183749 4.02111039 1.27306096 6 2 C6.33 2.66 6.66 3.32 7 4 C5.1875 4.6875 5.1875 4.6875 3 5 C1.25 3.6875 1.25 3.6875 0 2 C0 1.34 0 0.68 0 0 Z " fill="#1A1A1A" transform="translate(272,176)"/>
<path d="M0 0 C2 1.3125 2 1.3125 4 3 C4 3.99 4 4.98 4 6 C2.68 5.67 1.36 5.34 0 5 C0.33 4.34 0.66 3.68 1 3 C0.01 3 -0.98 3 -2 3 C-2 2.34 -2 1.68 -2 1 C-1.34 0.67 -0.68 0.34 0 0 Z " fill="#212121" transform="translate(269,419)"/>
<path d="M0 0 C1.98 0 3.96 0 6 0 C5.0409375 0.556875 5.0409375 0.556875 4.0625 1.125 C1.36141928 3.58052793 1.31592995 5.44578805 1 9 C0.67 9 0.34 9 0 9 C0 6.03 0 3.06 0 0 Z " fill="#121212" transform="translate(289,417)"/>
<path d="M0 0 C0.66 0 1.32 0 2 0 C2.33 2.31 2.66 4.62 3 7 C2.34 6.34 1.68 5.68 1 5 C0.01 5.495 0.01 5.495 -1 6 C-0.67 4.02 -0.34 2.04 0 0 Z " fill="#C6C6C6" transform="translate(173,353)"/>
<path d="M0 0 C1.98 0.99 3.96 1.98 6 3 C5.67 3.99 5.34 4.98 5 6 C4.34 6 3.68 6 3 6 C3 5.34 3 4.68 3 4 C2.01 3.67 1.02 3.34 0 3 C0 2.01 0 1.02 0 0 Z " fill="#242424" transform="translate(192,276)"/>
<path d="M0 0 C0.99 0 1.98 0 3 0 C2.67 2.31 2.34 4.62 2 7 C0.4375 5.1875 0.4375 5.1875 -1 3 C-0.67 2.01 -0.34 1.02 0 0 Z " fill="#404040" transform="translate(356,264)"/>
<path d="M0 0 C1.32 0.66 2.64 1.32 4 2 C3.01 2.99 2.02 3.98 1 5 C-0.32 4.34 -1.64 3.68 -3 3 C-2.01 2.01 -1.02 1.02 0 0 Z " fill="#323232" transform="translate(344,210)"/>
<path d="M0 0 C0.66 0 1.32 0 2 0 C2.33 1.65 2.66 3.3 3 5 C2.01 5.33 1.02 5.66 0 6 C-0.38218767 4.34385343 -0.71395102 2.67542976 -1 1 C-0.67 0.67 -0.34 0.34 0 0 Z " fill="#202020" transform="translate(163,210)"/>
<path d="M0 0 C0.99 0.33 1.98 0.66 3 1 C2.67 1.99 2.34 2.98 2 4 C2.99 4.33 3.98 4.66 5 5 C2.69 4.67 0.38 4.34 -2 4 C-1.34 2.68 -0.68 1.36 0 0 Z " fill="#CFCFCF" transform="translate(197,206)"/>
<path d="M0 0 C-0.66 1.65 -1.32 3.3 -2 5 C-2.61875 4.2884375 -2.61875 4.2884375 -3.25 3.5625 C-5.182185 1.83733482 -6.48192275 1.43415125 -9 1 C-5.8035914 -0.06546953 -3.34252724 -0.07427838 0 0 Z " fill="#464646" transform="translate(196,198)"/>
<path d="M0 0 C0.99 0.33 1.98 0.66 3 1 C2.34 1 1.68 1 1 1 C1.99 2.98 2.98 4.96 4 7 C1.53199953 5.84826645 -0.04783565 4.95216435 -2 3 C-1.34 2.01 -0.68 1.02 0 0 Z " fill="#DFDFDF" transform="translate(295,134)"/>
<path d="M0 0 C1.32 0.66 2.64 1.32 4 2 C3.34 3.32 2.68 4.64 2 6 C0.68 4.68 -0.64 3.36 -2 2 C-1.34 2 -0.68 2 0 2 C0 1.34 0 0.68 0 0 Z " fill="#262626" transform="translate(278,137)"/>
<path d="M0 0 C1.65 0.99 3.3 1.98 5 3 C4.67 3.99 4.34 4.98 4 6 C3.34 6 2.68 6 2 6 C0 3 0 3 0 0 Z " fill="#131313" transform="translate(235,62)"/>
</svg>
