
<svg version="1.1" xmlns="http://www.w3.org/2000/svg" xmlns:xlink="http://www.w3.org/1999/xlink" x="0px" y="0px"
	 viewBox="0 0 339 500" style="enable-background:new 0 0 339 500;" xml:space="preserve">
<style type="text/css">
	.st0{fill:#FFFFFF;}
</style>
<path class="st0" d="M338.1,20.2c-0.2,0.7-0.5,1.3-0.8,1.9L181.2,371.8l46.7,111.3c4.9,11.7-1.1,15.4-3.1,16.2
	c-1,0.5-2.1,0.7-3.2,0.7c-1,0-2-0.2-3-0.6c-3.1-1.2-5.7-4.1-7.8-8.9l-41.3-92.4l-41.3,92.4c-1.5,3.3-3.1,5.7-5.1,7.3
	c-1.8,1.4-3.8,2.2-5.8,2.2c-1.1,0-2.2-0.2-3.2-0.7c-1.9-0.8-8-4.5-3.1-16.2l46.7-111.3L1.5,21.9c-1.8-3.6-2-7.9-0.7-11.8
	C2.2,6.1,5,3,8.8,1.1c8.6-3.2,17.6,0.9,20.6,8.9l140,333.8l140.1-334c1.2-3.5,4-6.6,7.6-8.3c3.7-1.8,7.8-2,11.6-0.6
	c3.8,1.3,6.9,4.1,8.7,7.8C339.3,12.3,339.5,16.4,338.1,20.2z"/>
</svg>
